<svg xmlns="http://www.w3.org/2000/svg" width="50.634029mm" height="59.271446mm" viewBox="0 0 50.634029 59.271444">
  <path d="M9.64768 13.5960114c1.70124-1.850847 2.00983-2.38266 2.02166-3.484062.0214-1.9969109-1.43723-3.2490219-5.81146-4.9884889-2.09397-.832693-2.78957-1.2679456-4.16718-2.6074734C.78119 1.6316244.03705 1.0433656.03705 1.208745c0 .4429105.93342 3.0786694 1.43108 4.0410445.71514 1.38291701 2.02024 2.689523 3.36925 3.3731169 1.48721.753623 1.90319 1.665192 1.14315 2.505032-.69103.763573-1.7487.634831-3.28651-.400042-1.24801-.839847-1.34971-.868183-1.18705-.330729.23548.778016 1.1263 2.285671 1.81403 3.070117.78112.890975 2.47179 1.606118 3.81314 1.612932 1.05423.0054 1.2514-.111068 2.51354-1.484205zm35.68833 1.479123c1.27102-.353002 2.42314-1.524496 3.39743-3.454554.42938-.850601.78069-1.618751.78069-1.707001 0-.08825-.49562.263782-1.10138.782293-1.17169 1.002913-2.68166 1.461883-3.37358 1.025429-.24751-.156124-.41983-.62963-.41983-1.15361 0-.76183.15118-.97338 1.05833-1.48099 2.26285-1.26620389 4.33111-4.1961889 4.78169-6.7739575l.17467-.9993239-1.43492 1.4009326c-1.15671 1.1293124-2.06574 1.6771328-4.68849 2.8254859-3.46957 1.51912101-4.55986 2.25584501-5.21587 3.5244299-.65306 1.262882-.2802 2.336635 1.53759 4.427938 1.76279 2.028024 2.26522 2.204616 4.50367 1.582928zm4.83049 41.2209293c-.8599-2.66088-2.51849-4.75384-4.48883-5.664404-.8697-.40192-1.07289-.639392-1.14003-1.332325-.0635-.656034.063-.938064.57027-1.27041.59672-.390986.73694-.391671 1.65495-.0081.55165.230495 1.3908.71487 1.86478 1.076394l.86178.657313-.28456-.816303c-.44921-1.288601-1.85852-3.224361-2.81293-3.863722-.48029-.321741-1.53014-.667059-2.33302-.767371l-1.45976-.182385-1.37115 1.518933c-1.85052 2.049955-2.3556 2.979206-2.19541 4.039132.21712 1.436603 1.09967 2.358914 3.21742 3.362363 1.08485.514032 2.84028 1.345401 3.90096 1.847485 1.13261.536135 2.41563 1.407612 3.10885 2.111653.64919.659325 1.21986 1.082497 1.26816.940382.0483-.142116-.11438-.884-.36148-1.648632zm-47.59197-.04443c.64151-.489834 2.40506-1.388436 3.91898-1.99689 3.21652-1.292736 4.81998-2.512134 5.07236-3.857435.26359-1.405059-.0195-2.048706-1.8038-4.101502l-1.65112-1.899552-1.24073.146944c-2.36142.279678-3.6513 1.273731-4.94611 3.811762-.79949 1.56713-.70171 1.831671.3392.917737 1.80085-1.581164 3.64501-1.662237 4.01787-.176636.20731.825981-.15583 1.267452-1.62929 1.98074-1.99574.96612-3.87216 3.851436-4.46892 6.871729L0 58.8745727l.70407-.866164c.38723-.47639 1.22894-1.266939 1.87046-1.756775zm21.27502-13.616235c-5.9927-1.970286-7.69284-7.093339-5.78402-17.429057.55067-2.981749 1.00373-3.844658 1.04185-1.984376.0283 1.381017.5565 2.997801 1.08913 3.333775.64889.409313 1.37303-.348174 2.4765-2.590549 1.28397-2.609168 1.67693-5.422155 1.14282-8.1807603-.4568-2.359307-.25579-2.298259 1.1851.35993 1.72122 3.1753393 2.37127 5.5788563 2.39724 8.8635423.0197 2.489872-.063 3.096874-.57218 4.200822-.76824 1.665576-.75186 2.583849.0634 3.552687.78302.930566 1.81908 1.187411 2.92531.725197.98111-.409932 1.66434-1.406284 2.23986-3.266395.23897-.772338.54443-1.414537.67881-1.42711.13439-.01257.60152.669988 1.03808 1.516803.63952 1.240499.81219 1.944736.88862 3.624382.0866 1.903339.0226 2.231501-.7357 3.771816-.89823 1.824567-2.74851 3.703391-4.44199 4.510511-1.10223.525333-4.53294.780396-5.6328.418782zm5.65615 16.040736c.20717-.327421.8079-2.024062 1.33494-3.770312.52704-1.74625 1.02315-3.38336 1.10245-3.638021.12427-.399029-.0411-.463021-1.19654-.463021-.73742 0-1.33456-.0893-1.32699-.198438.008-.10914.81124-1.381842 1.78594-2.828226 1.43672-2.132002 2.09771-2.850198 3.49197-3.7942.94588-.640429 2.17489-1.600147 2.73113-2.132714 1.07027-1.024726 3.35428-4.275587 3.35428-4.774192 0-.162332.11906-.295148.26459-.295148.14552 0 .26458.275381.26458.611958 0 .336576.32742.922054.7276 1.301059l.72761.689105 2.64583-2.229655c1.45521-1.226309 3.03279-2.643476 3.50573-3.149258l.8599-.919605-.0186-3.377322c-.0102-1.857528-.0995-3.571325-.19843-3.808436-.16646-.399024-2.64182-2.620548-5.68958-5.106126l-1.27439-1.039321-.63332.774738c-.34832.426106-.6376.983097-.64283 1.237758-.0163.791993-.37249.504227-1.31935-1.065837-1.24647-2.066848-3.23282-4.1157223-5.263-5.4286703-1.41933-.917898-1.99209-1.538417-3.51454-3.807597-1.00038-1.491042-1.81887-2.774486-1.81887-2.852098 0-.07761.60333-.141111 1.34075-.141111 1.15544 0 1.32081-.06399 1.19654-.4630209-.0793-.25466199-.57541-1.89177099-1.10245-3.6380212C29.42524-.3192681 29.82438.004777 25.46336.004777c-2.61505 0-3.7415.094791-3.93024.3307292-.317.396268-2.44606 7.11011431-2.44606 7.7134773 0 .3243049.27663.4224609 1.19062.4224609.65485 0 1.19063.08413 1.19063.18696 0 .102828-.84269 1.461433-1.87263 3.019122-1.37825 2.084451-2.09423 2.922281-2.71198 3.173514-1.2011.488472-5.51452 4.9026083-6.11156 6.2542593-.27318.618463-.66995 1.124479-.8817 1.124479s-.32577-.154345-.25338-.34299c.0724-.188643-.20353-.753629-.61316-1.255525l-.74477-.912539-.61531.546927c-.33842.300808-1.89522 1.648082-3.45957 2.993938l-2.84427 2.447013V33.5749437l3.47387 2.941455 3.47387 2.941455.74613-.874975c.44388-.52053.69072-1.06254.60934-1.337995-.294-.995156.42026-.387302 1.22922 1.046099 1.10118 1.951189 3.40078 4.350825 5.42226 5.658144 1.33995.866561 1.88902 1.480074 3.37688 3.773173.97722 1.506093 1.77676 2.815781 1.77676 2.910417 0 .09464-.53578.172064-1.19063.172064-.83816 0-1.19062.108508-1.19062.366548 0 .582711 2.14315 7.403558 2.44119 7.76939.19202.235704 1.32266.330729 3.93511.330729 3.51343 0 3.68131-.02471 4.04235-.595313z"/>
</svg>
