<svg xmlns="http://www.w3.org/2000/svg" viewBox="0 0 61.11941 29.392127" height="111.08835" width="231.0025">
  <path d="M52.4464 28.69679l2.30786-.47053 1.03546.58196c.60319.33901 1.49257.58196 2.13046.58196.92706 0 1.1339-.10233 1.34867-.6672.16738-.44025.52515-.7215 1.05178-.82682l.79812-.15963v-6.58212l-2.3151-2.65721c-3.90812-4.48561-4.58503-5.31384-4.45182-5.44705.0706-.0706.63983.16655 1.26486.52707 1.95139 1.12558 5.18575 2.84837 5.34751 2.84837.25506 0 .17409-4.90078-.0855-5.1726-.33917-.3552-2.67069-4.76187-2.66904-5.0446.00075-.12861.65498-.65056 1.45384-1.15988l1.45248-.92604.001-2.05052.001-2.05052-1.25677.006c-.69946.003-1.78475.24869-2.4474.55353-2.27485 1.0465-2.21527 1.04331-3.80903.20397C52.28295.0888 51.89242.00754 50.19873.07628l-1.91304.0776-.0684 14.4661c-.0644 13.61279-.0409 14.47357.39688 14.59255.53342.14497.70472.12192 3.83146-.51558zm-15.86995-.46816l1.39126-.97506.22511.93767c.27859 1.16041.57295 1.24442 4.00822 1.144l2.64583-.0773.0684-14.62897L44.98367 0l-2.14889.0769-2.14889.0769-.86487 3.43958c-.47567 1.89177-.92615 3.26099-1.00106 3.04271-.11807-.34406-.48946-2.04829-1.21083-5.55625L37.4187.1538h-5.27182l-.0684 14.40275c-.0539 11.34034.002 14.45106.26458 14.62994.74175.506 2.81371.0372 4.23344-.95778zm-15.56515 1.0015c.37613-.14434.37313-.23444-.0306-.9179-.24622-.41682-.38444-.82109-.30715-.89839.0773-.0773.84495.0872 1.70589.36553 3.73902 1.20876 5.50686 1.64181 6.09738 1.4936l.63186-.15859-.0684-14.48033-.0684-14.48033-2.23863-.0777c-1.73557-.0603-2.4312.026-3.09558.38375-.80692.43455-.88597.43523-1.35407.0116-.40256-.36431-1.03426-.44989-3.32057-.44989h-2.82344v14.50798c0 7.9794.0794 14.58737.17639 14.68438.22021.2202 4.12862.23381 4.69533.0163zm-14.4721-.88681l.41122-1.04685 1.13181.92743c1.22407 1.00304 2.45751 1.33262 3.94378 1.05379l.94308-.17692-.0684-14.47353-.0684-14.47352-1.38906-.08c-1.09124-.0628-1.38906.005-1.38906.31511 0 .67719-.44337.717-1.84264.16546C7.10235.11709 6.24367.0214 3.42979.0214H0v.8008c0 .50821.27816 1.1124.76132 1.65364C4.94269 7.15993 7.10235 9.676 7.01581 9.76253c-.0572.0572-1.60994-.62293-3.45063-1.51131S.16931 6.63598.10923 6.63598C.04913 6.63598 0 10.30797 0 14.79596v8.15998l1.52135.34754 1.52136.34753-1.51327.68676-1.51328.68675-.008 2.18282-.008 2.18281H6.12815z"/>
</svg>
