<svg xmlns="http://www.w3.org/2000/svg" viewBox="0 0 47.615972 59.52185" height="224.96446" width="179.96588">
  <path d="M36.07496 41.759295c-.62029-.300352-1.15466-1.270484-1.15466-2.096272 0-.78695 1.17214-1.827607 2.05852-1.827607 1.82571 0 2.63758 2.621047 1.14178 3.686151-.84751.603478-1.20458.644975-2.04564.237728zm-1.7679 12.149558c.13491-.181901.69844-1.34276 1.25229-2.579687 1.54998-3.46166 1.88015-4.237228 2.55709-6.006613.36775-.961242.86302-1.766872 1.19563-1.944881.85765-.458996 1.69365-2.149906 1.69365-3.425589 0-1.079828-.90514-3.175-1.37164-3.175-.11872 0-.21586-.180343-.21586-.400765 0-.582924 1.59379-1.476285 2.48278-1.391658.72859.06936.79811-.02281 1.54212-2.044035.42852-1.164167.88214-2.354792 1.00804-2.645834 1.06473-2.461278 2.18018-6.369674 2.77054-9.707633.41433-2.342714.54728-9.210074.1783-9.210074-.24113 0-.97197.883856-3.39109 4.101041-1.46064 1.942505-1.93362 2.705452-3.85896 6.224709-.80119 1.464466-4.17132 10.106927-4.17132 10.697064 0 .233773.183.495266.40667.581094.48887.187598 1.18083 1.454304 1.18083 2.161635 0 .392996-.25339.549011-1.11561.686885-2.32374.371581-3.83414 2.370137-3.55736 4.707101.1164.982758.002 1.723922-.47554 3.067635-.95366 2.68627-2.5244 8.107053-2.5244 8.711988 0 .660837.41704 1.0208 1.74759 1.508406 1.30189.477096 2.35028.510211 2.66625.08421zM9.91717 41.763227c-1.88523-1.031147-1.36238-3.927811.70898-3.927811 1.89494 0 2.7686 2.287455 1.36906 3.584509-.76235.706517-1.26281.789196-2.07804.343302zm6.67088 11.775249c.74097-.361979 1.02369-.677383 1.08513-1.210577.082-.711766-1.60425-6.683121-2.60231-9.215223-.36723-.931664-.46859-1.635149-.35501-2.46381.32879-2.398782-1.15894-4.464225-3.4646-4.80998-.86407-.129577-1.20134-.301895-1.20016-.613198.002-.59649.7479-1.974702 1.20755-2.231932.20807-.116444.37832-.408247.37832-.648454 0-.359045-1.21774-3.823674-2.11563-6.019261-.11903-.291041-.41535-1.064947-.6585-1.719791-.60063-1.617583-2.60187-5.341519-3.91014-7.276042C3.34173 14.948109.51354 11.377084.23792 11.377084c-.13361 0-.24049 1.396824-.23787 3.108854.008 5.532786.92236 9.828175 3.56063 16.734895 1.57993 4.136091 1.43126 3.88085 2.20076 3.778313.8396-.111873 2.43594.790626 2.43594 1.377172 0 .220422-.0971.400765-.21586.400765-.46194 0-1.37164 2.09446-1.37164 3.158016 0 1.327904.50088 2.369344 1.5737 3.272062.43943.369753 1.04458 1.306669 1.34478 2.082036.30021.775369.77839 1.91448 1.06263 2.531356.28425.616878.51681 1.18288.51681 1.257784 0 .0749.54586 1.281149 1.21302 2.680549l1.21302 2.544363 1.02608-.137626c.56435-.07569 1.47701-.357909 2.02813-.627147zm6.50879-10.722459c-1.95795-.521512-2.60821-3.025055-1.16148-4.471786 1.6802-1.680194 4.51827-.539253 4.51827 1.816402 0 1.868344-1.58987 3.126015-3.35679 2.655384zm3.44714 16.066389c.50671-.69297.67723-2.449915.87431-9.008449.15395-5.123185.21386-5.638739.76867-6.614583.33094-.582083.72015-1.499661.86491-2.039064.54928-2.046729-.77177-4.69937-2.87461-5.772158-1.1604-.591994-1.21736-.748281-.66319-1.819918.44916-.868584 1.48951-1.613651 2.25317-1.613651.52889 0 .53846-.13307.53772-7.474479-.001-9.375126-.39794-12.278933-2.65001-19.38365-.59914-1.890164-1.20956-3.823615-1.35648-4.296558C24.15155.386954 23.93827 0 23.82451 0c-.11376 0-.47304.803672-.7984 1.785938-3.11025 9.38999-3.64694 12.414322-3.88816 21.910325-.18502 7.28336-.10545 8.317698.63999 8.31931.80461.0019 2.07613.96693 2.44409 1.855279.39171.945655.37336.972915-1.26419 1.878412-.42511.235064-1.11863.880639-1.54117 1.434613-.69174.90692-.76825 1.206886-.76825 3.012194 0 1.687645.0996 2.144622.62934 2.887345.54202.759944.64291 1.25554.72715 3.571875.0538 1.479224.22301 4.713562.37602 7.187416.26946 4.356566.3 4.51744.97145 5.119203.62605.561071.89304.612215 2.75466.527672 1.66711-.07571 2.13325-.191846 2.43694-.607176z"/>
</svg>
