<svg xmlns="http://www.w3.org/2000/svg" width="37.43922mm" height="59.584835mm" viewBox="0 0 37.43922 59.584833">
  <path d="M20.3127 5.225521L20.241 0h-3.175l-.0723 4.8862791c-.0398 2.6874537-.0138 5.0389377.0578 5.22552068.086.224228.6731.339242 1.73158.339242h1.60139zm10.29212-.1957776c-.2489-.7477563-1.14173-.1071653-4.39064 3.1502414-3.12632 3.13450198-3.50904 3.61256298-3.19501 3.99095.31732.382338.76144.02599 4.01569-3.222033 2.01241-2.008554 3.61889-3.7721747 3.56996-3.9191584zM11.10996 8.1991938c-1.95891-1.962942-3.7051-3.5689854-3.88043-3.5689854-.99769 0-.36178.9079175 2.98334 4.2594514 3.2576 3.263853 3.70922 3.628019 4.06191 3.275329.3527-.35269102.0008-.79362602-3.16482-3.965795zm24.2916 8.4034115l-.0794-1.521355H24.75429l-.0248 1.521355-.0248 1.521354h10.77614l-.0794-1.521354zm-22.8407 0l-.0452-1.521355-5.19932-.07174-5.1993-.07174V18.1239573h10.48908zm4.5241 15.2131417c-.80692-.697527-1.01992-1.085485-1.12578-2.050521-.2196-2.001798 1.29382-3.690961 3.31492-3.699867 1.80297-.0079 3.22368 1.473813 3.20645 3.344214-.0177 1.922814-1.37916 3.261593-3.31998 3.264725-.84005.0013-1.3018-.18964-2.07561-.858551zm-11.66066.538657c-1.19944-.692568-1.71979-1.631865-1.71979-3.104436 0-.860366.18393-1.280318.90571-2.067917.84264-.91948 1.01056-.988301 2.4115-.988301 1.42256 0 1.55532.05729 2.40159 1.03627.6977.807125.89578 1.271553.89578 2.100294 0 1.206463-.83158 2.628308-1.79354 3.066606-.802.365413-2.43351.343048-3.10125-.04252zM29.42834 40.5474l.073-4.034896h3.70417l.073 4.034896.073 4.034896h-3.9962zm-25.72383-.06615v-4.101041h18.78541v8.202083H3.70451zm31.66213 18.346004c2.14922-1.422699 2.07224-.751004 2.07224-18.081424 0-17.329939.0769-16.658402-2.07173-18.081424l-1.06298-.703993-6.36303-.0799c-4.57901-.0575-6.41953-.16877-6.56453-.396875-.35818-.5634437-.22071-1.6184317.32822-2.5187867.78194-1.282547.91687-2.891078.33643-4.010622-1.45116-2.7989895-5.35456-2.7989895-6.76082 0-.63917 1.272176-.58 2.34252.21181 3.831706.41218.775204.6441 1.589405.59531 2.089928l-.0799.8199677-6.48229.132291-6.48229.132292-1.07738.731594C-.07585 24.078322.00037 23.382621.00037 40.631015c0 12.4416.0689 15.506462.36429 16.196752.48529 1.134197 1.67293 2.20395 2.81071 2.531702.58307.167963 6.51881.249172 16.02692.219268l15.10088-.04749z"/>
</svg>
