<svg xmlns="http://www.w3.org/2000/svg" viewBox="0 0 59.727429 42.654056" height="161.21217" width="225.74147">
  <path d="M9.58131 18.717334c.1033-.826792.56257-2.285308 1.02059-3.241146.73147-1.526467.83303-2.011483.83486-3.986847.002-1.887128-.11159-2.491448-.70441-3.756157-.83331-1.777771-2.44416-3.442207-4.51809-4.668401-1.51096-.893344-2.46479-.939543-1.69272-.08199.21626.240214.72848 1.091597 1.13827 1.891962.73051 1.426809.74399 1.534248.69032 5.505227-.0507 3.755116-.006 4.178758.61075 5.818054.74221 1.971881 1.86869 4.022553 2.20966 4.022553.12262 0 .30747-.676466.41077-1.503258zm34.46565 9.33879c-.0991-10.554105-.14685-11.526157-.63851-12.994908-.73696-2.201502-1.81165-4.320762-2.95523-5.827641-1.02837-1.355074-1.86688-1.917631-1.52255-1.021482.38862 1.011426.95088 4.140618.95088 5.29206 0 1.567739-.58505 2.659805-1.53694 2.868874-1.18633.260562-2.03081-.218637-2.62363-1.488786-.72028-1.543212-1.235-5.381628-1.00707-7.509975.12849-1.199872.094-1.705758-.11647-1.705758-.53509 0-1.26055 2.301466-2.08502 6.614583-.61063 3.194419-.8337 7.709517-.83334 16.867188.00027 8.955681.0311 9.59153.4634 9.596944 1.49931.01876 10.98922.774909 11.09863.884319.0725.07247.30752.06431.52234-.01812.33836-.129839.37627-1.675466.28351-11.557291zM22.81592 39.140266c2.91042-.213233 5.36158-.390202 5.44703-.393268.0855-.0031.23265-5.452682.32709-12.11026.1642-11.574772.3426-14.825028.99111-18.057813.34383-1.71394 1.49418-6.375938 1.71571-6.953259.0847-.220852.0556-.46241-.0647-.536795-.45981-.284182-3.07443 2.568413-4.2638 4.651893-.99208 1.737868-2.19445 5.539608-2.44568 7.732952-.55531 4.847965-1.16414 6.217709-2.76364 6.217709-.70627 0-1.06981-.21449-1.7904-1.056329-1.0683-1.248074-1.51831-2.584452-1.51831-4.508945 0-4.0337-1.24782-7.372099-3.64651-9.755771-1.37206-1.363475-3.88863-2.896594-4.21649-2.568732-.0726.07256.34287.704402.92317 1.404084 1.29669 1.563425 2.18688 3.164411 2.94184 5.290813 1.3682 3.853651 1.41753 4.431357 1.53219 17.941755.0593 6.985.16353 12.862336.23167 13.060747.0802.233479.33279.302215.716.194831.32565-.09126 2.97334-.340381 5.88376-.553612zM59.5647 42.29166c.28005-.7298.17304-21.324719-.12647-24.34022-.15789-1.589623-.46646-3.604599-.68571-4.477724-.21926-.873125-.4606-1.913707-.53632-2.312404-.20375-1.072818-.60757-.606873-.60757.701037 0 2.222333-.89596 3.860326-2.11155 3.860326-.98277 0-1.57347-.746999-3.20311-4.050699-2.30288-4.668504-4.66488-7.138155-9.03054-9.442098-2.237-1.18056-5.72433-2.437415-6.10691-2.200967-.11679.07218.71956 1.102726 1.85856 2.290103 3.60638 3.759561 6.06913 7.841549 7.04914 11.683869.60144 2.358059.96108 9.058347.96108 17.905392 0 5.573477.0873 7.914196.3 8.045667.165.101979 1.80211.459251 3.63802.793941 4.02783.734279 5.34733 1.026009 6.90989 1.527699 1.5574.500036 1.50596.499546 1.69149.01609zm-56.46024-.11699c.50932-.135983 2.77151-.619538 5.02708-1.074566 2.25558-.45503 4.27964-.916924 4.49792-1.026435.33951-.170326.40693-1.550186.46646-9.546403.044-5.907503-.0267-9.443627-.19218-9.609066-.41724-.417237-1.23208.51185-1.59934 1.823582-.25002.892996-.25732 1.452791-.0307 2.352877.40261 1.598914.36092 3.61887-.0869 4.209761-.35398.467085-.37793.465297-.65304-.04875-.15708-.293492-.28559-.985586-.28559-1.537986 0-.692584-.30245-1.498782-.9743-2.597081-.53587-.875996-1.04251-1.652249-1.12588-1.725009-.4668-.407416-3.2109-4.29471-3.6548-5.177388-.82848-1.6474-1.20187-3.692253-1.06465-5.830462.0876-1.36493.0341-1.956734-.17695-1.956734-.16639 0-.85428.833145-1.52865 1.851433C.13595 14.678806-.26255 16.352773.15382 18.87394c.19491 1.180265.30477 5.745174.30477 12.66446 0 5.95045.0878 10.906842.1952 11.014205.18958.189577.51023.140123 2.45063-.377933z"/>
</svg>
