<svg xmlns="http://www.w3.org/2000/svg" width="60.018864mm" height="37.777637mm" viewBox="0 0 60.018863 37.777636">
  <path d="M25.2186 3.328876c-.0818-.213152-.10725-.602863-.0566-.866025.0848-.440429.47056-.478476 4.85102-.478476h4.75888v1.5875l-4.70231.07228c-3.93214.06044-4.72666.0088-4.85102-.315274zm11.08318 1.868405c1.06096-.447326 4.68786-4.334148 4.68786-5.023818C40.98964.078053 36.04854 0 30.00943 0c-6.03912 0-10.98021.07806-10.98021.173463 0 .658617 3.60599 4.562799 4.63021 5.0131 1.14308.502559 11.45508.511301 12.64235.01072zm-2.38975 12.9407432c1.27331-1.655506 2.31233-3.22889 2.30893-3.496412-.003-.267522-.3313-1.081716-.72865-1.80932l-.72247-1.322917h-9.52082l-.72247 1.322917c-.39736.727604-.72525 1.541798-.72865 1.80932-.003.267522 1.03562 1.840906 2.30893 3.496412l2.3151 3.010009h3.175zm-9.38662 1.282528c-1.64046-2.124527-3.06796-4.01184-3.17223-4.194027-.10583-.184893.28581-1.254575.88643-2.421073 1.89772-3.685719.93784-3.280452 7.76982-3.280452s5.8721-.405267 7.76982 3.280452c.60061 1.166498.99226 2.23618.88643 2.421073-.10427.182187-1.53178 2.0695-3.17223 4.194027l-2.98265 3.862782h-5.00274zm9.98014 6.196706c.37652-.17155 2.23829-2.308834 4.13727-4.74952 1.89899-2.440683 3.73277-4.739806 4.07508-5.109162.3423-.369356 2.43918-1.563936 4.65971-2.654622 2.22054-1.090686 4.14133-2.168884 4.26843-2.395995.15253-.272567.0556-.746159-.28532-1.393256-.46986-.891953-.60667-.974633-1.51762-.917156-.55066.03474-1.14259-.05417-1.31541-.197596-.17281-.143422-.65087-1.052912-1.06235-2.0210892L46.7172 4.41854l.71912-.618563c.55867-.480549.66271-.722587.46628-1.084791-.67532-1.245268-2.98439-2.734043-4.19248-2.703115-.27227.007-1.5337 1.306757-2.98507 3.075813-3.42668 4.1767592-3.07557 4.0442452-10.71562 4.0442452-7.64006 0-7.28895.132514-10.71563-4.0442452C17.70164 1.147203 16.59266.019718 16.26848.012071c-.85856-.02025-2.7254 1.028844-3.59672 2.021222l-.82446.939011.87827.733211.87827.733211-.90938 1.879781c-.96598 1.9967702-1.38581 2.3181322-2.48333 1.9008592-.59492-.226189-.75287-.16567-1.19086.456282-.64756.919565-.87954 1.691751-.62818 2.091073.1093.173623 2.01749 1.215664 4.24043 2.315645 2.22295 1.099981 4.32277 2.303221 4.66627 2.673866.3435.370644 2.17941 2.672297 4.0798 5.114782 1.90038 2.442485 3.72678 4.571712 4.05866 4.731613.83986.404638 8.18632.416493 9.0683.01463zm-5.41317 5.482122c-.19587-.236016-.25171-.698717-.14367-1.190625.15388-.70059.29099-.804587 1.06072-.804587s.90684.103997 1.06071.804587c.2101.956585-.20706 1.576663-1.06071 1.576663-.32817 0-.74084-.173718-.91705-.386038zm-13.94464 4.954466c-.0486-1.759326-.56107-3.952261-2.08831-8.935485-.53495-1.745464-1.02697-3.411694-1.09339-3.702735-.24168-1.058969 1.01892.721886 2.107 2.976562.57937 1.200547 1.16144 2.182813 1.2935 2.182813.65912 0 2.04757-.816838 2.69372-1.584746.39937-.474623.75988-.818234.80114-.763582 3.5843 4.748231 4.49911 5.710947 6.35879 6.691781 1.20425.635145 1.54392.68363 4.78924.68363 3.24678 0 3.58445-.04826 4.78924-.68444.7129-.376444 1.5757-.941991 1.91733-1.256771.45863-.422579 3.77711-4.477848 4.44688-5.4342.0383-.05465.39635.288959.79572.763582.77536.921465 2.21789 1.6681 2.78656 1.442286.19004-.07546.6354-.81842.98969-1.651018.68899-1.619126 2.10585-3.87907 2.3063-3.678622.0667.06674-.23309 1.235962-.66628 2.59828-2.40607 7.566769-3.18531 11.692766-2.27433 12.042339.53394.204893 1.30012-.508902 2.41963-2.254213.501-.781037 1.25225-1.707298 1.66946-2.05836 1.81144-1.524225 5.65299-9.561524 8.3279-17.423655 1.50487-4.423156 2.05456-6.683602 2.1554-8.863542.0505-1.0914062.16895-2.9666412.26325-4.1671872.14842-1.889636.11502-2.182813-.24872-2.182813-.98119 0-2.70712 2.599416-5.45699 8.2187372-.88566 1.809851-1.75662 3.366837-1.93546 3.459969-.17884.09313-2.1111 1.026689-4.29391 2.074572l-3.96875 1.90524-1.90993 2.423346c-1.05045 1.332841-2.75586 3.494908-3.78979 4.804595-1.03393 1.309688-1.96046 2.521728-2.05896 2.693421-.52972.923351-1.71919 1.139778-6.26424 1.139778s-5.73452-.216427-6.26424-1.139778c-.0985-.171693-1.02503-1.383733-2.05896-2.693421-1.03393-1.309687-2.73934-3.471754-3.78979-4.804595l-1.90993-2.423346-3.96875-1.90524c-2.18281-1.047883-4.11507-1.98144-4.29391-2.074572-.17884-.09313-1.0498-1.650118-1.93546-3.459969C3.03852 3.393166 1.31259.79375.33139.79375c-.36373 0-.39713.293177-.24871 2.182813.0943 1.200546.21276 3.075781.26325 4.1671872.10466 2.262488.66006 4.48538 2.34682 9.392709 2.65047 7.711109 6.34087 15.383587 8.11904 16.879822.40763.342992 1.07706 1.150194 1.48763 1.793777 1.07082 1.67854 2.02005 2.654811 2.4878 2.558653.31761-.06529.39578-.437126.36052-1.714865z"/>
</svg>
