<svg xmlns="http://www.w3.org/2000/svg" viewBox="0 0 47.130084 59.266673" height="224.00002" width="178.12946">
  <path d="M20.7779 41.144611c-1.70344-.37048-4.17343-1.525921-3.88293-1.81642.0934-.0934.65603-.16927 1.25024-.16855 2.68463.003 5.86669-2.17423 7.15408-4.895551.55054-1.163749.67318-1.817719.67318-3.589719 0-1.896001-.1042-2.378379-.83396-3.860731-.8939-1.815769-1.97873-2.935149-3.69127-3.808819-1.66154-.84765-2.0134-.51413-.57295.5431 3.13096 2.29797 3.53689 6.68417.87734 9.47993-1.33506 1.40344-2.57262 1.89715-4.75551 1.89715-1.48657 0-1.95603-.119261-2.94945-.749271-2.676-1.69707-3.63738-3.9105-3.12214-7.18823.75718-4.816919 3.51149-8.30182 8.16877-10.335576 1.2588-.549702 1.86586-.635467 4.49791-.635467 3.48266 0 4.68568.382665 7.58006 2.411123 4.25596 2.982681 6.19821 8.773021 4.69062 13.983881-.78168 2.70182-3.857 6.359031-6.45377 7.67491-1.54235.781571-4.33876 1.452599-5.9492 1.427591-.58208-.009-1.78854-.17525-2.68102-.369351zm9.90168 13.178891c3.59572-2.718742 7.31159-5.578552 8.25747-6.355141 3.49762-2.87161 6.51005-7.60371 7.66861-12.04631.42872-1.643949.53162-2.864929.52405-6.217711-.01-4.332979-.2457-5.882509-1.29982-8.53767-3.07261-7.739394-8.80601-12.640149-17.34388-14.825076-1.66228-.425395-2.60603-.892266-3.33144-1.648066-.83638-.871402-1.55091-2.569427-1.55755-3.701341C23.59402.446484 23.48778 0 23.36135 0c-.12642 0-2.12072 1.44122-4.43177 3.202712-2.31105 1.761492-5.57113 4.22804-7.24462 5.481218-3.75293 2.81035-6.02282 5.095459-7.80024 7.852528-1.64215 2.547253-2.56465 4.601352-3.2952 7.337322-.78679 2.94662-.78592 9.535412.002 12.37741 1.41775 5.116121 4.80632 9.948482 9.15603 13.057222 2.305 1.647378 6.84768 3.526708 9.64561 3.99042 2.13936.35457 4.19842 2.825829 4.19842 5.038908 0 .51091.1239.92893.27534.92893.15144 0 3.2173-2.224429 6.81302-4.943168z"/>
</svg>
