<svg xmlns="http://www.w3.org/2000/svg" viewBox="0 0 43.786796 58.03595" height="219.34846" width="165.49341">
  <path d="M20.90034 33.3801112c-3.15914-.819095-5.10268-3.634098-4.83254-6.999423.14089-1.755164.546-2.629112 1.89001-4.077319.87725-.945253 3.14247-1.916846 4.47381-1.918896 2.1447-.0033 4.80425 1.683737 5.924 3.757795.64711 1.198586.65252 4.507884.009 5.698175-.63589 1.17678-2.21028 2.703505-3.2252 3.127563-1.1077.462828-3.24315.670409-4.2394.412105zm1.97341 22.316006c.14135-1.157819.44219-4.129188.66855-6.603042.89457-9.776937.95013-9.95603 3.35853-10.826676 1.82036-.658064 4.1034-2.4511 5.18181-4.06966.22311-.334859.74759-.785654 1.1655-1.001765.77419-.400347 1.73591-.316794 8.02512.697217 1.75556.283051 2.51354.296494 2.51354.04458 0-.114035-1.85522-1.208984-4.12271-2.433219-2.2675-1.224232-4.35109-2.516206-4.63021-2.871049-.33454-.425297-.50749-1.063268-.50749-1.871986 0-1.847604-.82444-4.438692-2.06511-6.490324-.61044-1.00946-1.10989-2.064899-1.10989-2.345423 0-.280523.52086-1.478666 1.15748-2.662538.63662-1.183872 1.72282-3.224058 2.41377-4.533745.69095-1.309688 1.70331-3.214688 2.24968-4.233334 4.31386-8.042713 4.26204-8.347603-.40753-2.397503-8.14525 10.378933-8.58385 10.909449-9.28242 11.227738-.95091.433262-1.29017.375204-2.17929-.372941-.94185-.792515-1.17256-1.87333-2.29612-10.756865-.0679-.537159-.25805-1.311065-.42248-1.719791-.26008-.646517-.40895.01367-1.14496 5.077695-.4653 3.201459-.98458 6.079491-1.15394 6.395627-.82068 1.531889-2.97423 2.27035-4.618 1.583535-.51387-.214708-1.56919-.817932-2.34516-1.340499-2.14968-1.447677-2.22291-1.327015-1.02917 1.695713.43102 1.091406.78777 2.266456.79278 2.611223.0111.764461-1.69443 3.640659-2.37476 4.004757-.27662.148045-2.69183.263187-5.52063.263187-2.76587 0-5.0942.105727-5.17407.23495-.15431.249679.69041.608935 5.90243 2.5103 1.8012.657082 3.53314 1.437286 3.84875 1.733786.35265.331303.7045 1.171731.91285 2.180468.38384 1.858388 1.31108 3.834059 2.48506 5.294913.85706 1.066507.84723.870924.22716 4.515896-.26787 1.574638-.0722 1.594289 1.98171.199067 1.77605-1.206461 2.84133-1.345414 3.9043-.509278 1.09719.863049 1.22696 1.319083 1.63373 5.741503.21045 2.287921.50208 5.350479.64808 6.805687.146 1.455208.34314 3.574291.43809 4.709076.0949 1.134782.27285 1.963025.39533 1.840539.12249-.122483.33835-1.170006.47969-2.327823z"/>
</svg>
