<svg xmlns="http://www.w3.org/2000/svg" width="58.980415mm" height="59.052143mm" viewBox="0 0 58.980415 59.052143">
  <path d="M42.599137 27.712494c1.02747-1.027464 1.29432-1.492376 1.44912-2.52464.43247-2.883924-1.79323-5.465927-4.71942-5.474921-1.03858-.0032-2.96974 1.081983-3.62092 2.034703-.93549 1.368692-.95027 4.041171-.0295 5.332192.99748 1.398556 2.029 1.889921 3.96988 1.891056 1.66606.0011 1.71035-.01791 2.95082-1.25839zm-20.88108.614077c2.54343-1.728303 2.5454-6.052454.003-7.745285-1.30051-.866111-2.49395-1.013693-3.889-.480918-1.69159.646026-2.57027 1.899786-2.71285 3.870905-.13885 1.919573.22111 2.853182 1.56987 4.071702.92516.835824 1.18101.928899 2.5535.928899 1.18085 0 1.73978-.14573 2.47496-.645303zm9.22196 16.189573c1.3753-.702744 2.07018-1.573392 2.39098-2.995742.44557-1.975625-.34995-3.865771-2.14532-5.097227-1.27123-.871947-3.73182-.734327-5.06606.283342-2.64954 2.020909-2.3268 6.340705.58347 7.809627.6487.327422 1.60525.595312 2.12566.595312.52042 0 1.47049-.26789 2.11127-.595312zm.41342 8.764362c-.0715-.200112-.16275-1.078217-.20284-1.951342l-.0729-1.5875H26.579787l-.0782 1.785938c-.0908 2.071854-.0686 2.061575-2.94757 1.366866-3.86616-.932918-9.82136-4.558455-11.96575-7.284772-.38723-.492313-1.0835-1.371365-1.54726-1.953448-1.13239-1.421299-3.28453-5.943332-3.8406-8.069791-.58574-2.239894-.8164-7.977415-.40741-10.134084.4466-2.355019 1.37839-5.24311 1.73586-5.380283.16836-.06461.83277.183573 1.47645.551514.64369.36794 1.29639.670414 1.45044.672166.27878.0032 1.96886-2.912529 1.96886-3.396659 0-.139721-.52962-.56442-1.17695-.943776-.64732-.379356-1.25096-.809501-1.34143-.955876-.20033-.324145 1.12398-2.058191 2.88622-3.779201 1.88571-1.841595 4.29235-3.4852583 6.81731-4.6560293 3.55963-1.650518 5.31855-2.0079794 9.88048-2.0079794 4.56192 0 6.32084.3574614 9.88047 2.0079794 2.52496 1.170771 4.9316 2.8144343 6.81731 4.6560293 1.76224 1.72101 3.086549 3.455056 2.886219 3.779201-.0905.146375-.69411.57652-1.341429.955876-.64733.379356-1.17695.810587-1.17695.958291 0 .510034 1.662089 3.385321 1.955089 3.382144.16163-.0019.82052-.304226 1.4642-.672166.64369-.367941 1.3081-.616121 1.47646-.551514.34488.132345 1.23647 2.911816 1.72386 5.37405.42308 2.137378.19977 7.864308-.39541 10.140317-.55607 2.126459-2.70821 6.648492-3.8406 8.069791-.46376.582083-1.160029 1.461135-1.547259 1.953448-2.14348 2.725163-8.11618 6.361972-11.94884 7.275716-2.96541.706985-3.94471.801586-4.0899.395094zm6.04703 4.977143c10.942889-3.171018 19.096449-12.062277 21.214879-23.134316.48676-2.544088.48676-8.700497 0-11.244585-1.13794-5.947482-3.86135-11.055769-8.21959-15.4174213-2.731749-2.7338964-5.131929-4.4143894-8.650059-6.0563552C37.322597.3406365 35.586747 4.7e-7 29.490207 4.7e-7c-4.70313 0-5.52708.06679-7.40833.60051703-2.64779.751203-2.59552.730125-5.99839 2.418765C7.973387 7.0438357 2.093037 14.847488.365077 23.878748c-.48677 2.544088-.48677 8.700497 0 11.244585 2.26431 11.834476 11.1767 20.911316 23.18502 23.61282 1.25479.282289 3.00303.360095 6.60157.293807 4.31148-.07942 5.17532-.171461 7.2488-.772311z"/>
</svg>
