<svg xmlns="http://www.w3.org/2000/svg" viewBox="0 0 47.894233 59.568072" height="225.13916" width="181.01758">
  <path d="M28.920074 42.025527c.2455-.63976-.51861-1.95767-1.24001-2.13873-.37991-.09535-1.47136.0077-2.42543.228933-2.20428.511204-3.59544.507622-5.85262-.01508-2.55881-.592537-4.71081-1.816814-6.69714-3.810011l-1.71979-1.725734.92604-.08586c1.30185-.120714 2.19516-1.013965 2.03085-2.030725-.0705-.436605-.26299-1.627264-.42764-2.64591-.47514-2.939556.0842-6.172156 1.48288-8.570446.84781-1.45371 3.76827-4.57299 4.09339-4.37206.12587.0778.22885.41888.22885.75798 0 1.06595.82346 1.79911 2.00242 1.78283.57547-.008 1.38013-.14135 1.78813-.29647.93756-.35647 4.17243-.35427 5.73445.004 2.13414.48934 4.93682 2.0288 6.47921 3.55891 1.54745 1.53514 1.7627 1.97598.96481 1.97598-.27142 0-.81756.25492-1.21365.56648-.66075.51974-.70803.67799-.57309 1.91823.44281 4.070198.48047 5.597119.17269 7.002929-.53108 2.425769-1.77845 4.732182-3.54999 6.564035-1.48999 1.540719-2.52459 2.165334-2.20436 1.330825zm-2.83384 16.339077c.86217-.661884 1.74691-1.346493 1.96607-1.521354.21916-.17486 2.7731-2.103866 5.67543-4.286679 6.3748-4.794419 7.93235-6.203788 9.75941-8.83085 3.03335-4.361556 4.4075-8.72893 4.40709-14.006761-.00011-1.554836-.18391-3.707506-.40843-4.783706-1.84956-8.86564-8.91027-16.31515-17.45072-18.41167-2.35752-.57873-3.5363-1.07054-4.32162-1.80308-.87885-.81977-1.63078-2.39045-1.63556-3.41641-.008-1.75322-.30032-1.74602-2.68262.0661-1.21447.92377-3.45828 2.63181-4.98625 3.79564-1.52796 1.16383-3.79015 2.88447-5.02708 3.82365-6.33206 4.80783-9.54663 9.63232-10.99005 16.49413-.74233 3.5289-.40008 8.977067.77276 12.301239 2.18561 6.194687 7.29331 11.605721 13.33407 14.125946 1.12343.468699 2.87603 1.060571 3.89468 1.31527 2.66966.667515 3.08659.874197 4.15982 2.062136.93392 1.03374 1.5242 2.457828 1.52724 3.684553.0008.327422.0997.595313.21982.595313.12008 0 .92375-.541541 1.78594-1.203427z"/>
</svg>
