<svg xmlns="http://www.w3.org/2000/svg" width="61.233479mm" height="58.849426mm" viewBox="0 0 61.233478 58.849424">
  <path d="M23.37738 4.71578611c.67502-1.2994005 1.31056-2.86856197 1.41232-3.48702547l.18501-1.1244792h-3.41324l-.15872 1.3890625c-.0873.76398437-.24189 2.51762047-.34354 3.89696907l-.18483 2.5079064.63785-.409943c.35081-.225469 1.19013-1.47309 1.86515-2.7724903zm37.67505 53.3983911c-.2879-1.157052-2.12437-4.936578-3.05811-6.293724-.46963-.68259-1.73179-2.295876-2.8048-3.585077-1.073-1.289201-1.95091-2.466256-1.95091-2.615674 0-.161692.80333-.271671 1.98438-.271671 1.0914 0 1.98437-.09679 1.98437-.215088s-.54022-2.034514-1.20048-4.258254c-1.3495-4.545016-2.89333-7.851757-4.8696-10.430198-.73604-.960313-1.33825-1.809872-1.33825-1.887908 0-.07804.5799-.141886 1.28866-.141886h1.28866l-1.29167-4.43177c-2.0792-7.133766-2.62259-8.715908-3.43169-9.991726-.88758-1.399566-.90009-1.451504-.34967-1.451504.26928 0 .36802-.162368.28158-.46302-1.48841-5.1771138-2.69408-9.2266962-3.09186-10.38489577l-.4998-1.4552083.13332 1.190625c.0733.65484377 1.37985 13.69218707 2.90339 28.97187407 1.52355 15.279688 2.82565 27.930079 2.89357 28.11198.0934.250258 1.48438.330729 5.71672.330729h5.59324zm-27.59773-1.91823c.39825-1.382448.7263-2.696458.729-2.920021.003-.240363-1.37372-1.238263-3.36853-2.441807-1.85539-1.119431-3.7526-2.269485-4.21604-2.555677l-.8426-.520348 1.90094-4.231794 1.90093-4.23179.0763 3.622071.0763 3.622075 2.6518 1.558097c1.48416.872029 2.74535 1.454541 2.86425 1.322916.11684-.129349.34968-.801833.51742-1.494406.29187-1.205087.22886-1.5093-1.46544-7.075535l-1.77041-5.816309 2.33666-3.451691c1.28517-1.898433 2.41677-3.501199 2.51467-3.561707.0979-.06051-.11674 1.402527-.47699 3.251187l-.65499 3.361198 2.04842 6.842839 2.04841 6.842839-1.21606 4.860068c-.66883 2.673038-1.21606 5.040868-1.21606 5.261848 0 .339477.55388.401781 3.57187.401781h3.57188v-1.12096c0-1.033656-1.14365-13.484898-1.46696-15.971142-.0958-.736621-.39254-1.32574-.92455-1.835439-.95418-.914159-.96956-1.076724-.12203-1.289441.80399-.20179.79726.141295.13542-6.90281-.28713-3.055937-.52436-5.765607-.52718-6.021488-.004-.323099-.67526-.774843-2.19858-1.478619l-2.19346-1.013383-.56088-4.209923c-.30849-2.315456-.53028-4.241303-.49288-4.27966.0374-.03836.64277 1.434525 1.34524 3.273072 1.06268 2.781289 1.41394 3.426174 2.09102 3.839064 1.21181.73896 1.75438.66131 1.60273-.229375-.0681-.400183-.42391-4.001823-.7906-8.003646-1.3156-14.3574429-1.25628-13.838006-1.53847-13.47170117-2.61793 3.39824207-2.82549 3.48249337-2.82549 1.146937V.10428144H27.8974l-.17914.9921875c-.0985.5457032-.88801 2.53999997-1.75439 4.43177047-1.47708 3.225217-1.69977 3.55509-3.5732 5.292927l-1.99795 1.8533438-.77214 7.917069c-.42468 4.354386-.7365 7.952717-.69292 7.996288.0436.04357.63436-.484399 1.31287-1.173268 1.33868-1.359114 1.3491-1.393568 2.70646-8.942546l.4319-2.402022 3.03665-1.277855c1.67016-.70282 3.13559-1.467379 3.25652-1.699021.12093-.231641.49197-1.72109.82453-3.3098868.42543-2.032508.66265-2.731929.80033-2.359729.45474 1.229276 1.59462 7.5749768 1.39246 7.7518108-.12136.10616-1.62027.776958-3.33091 1.490662-2.27269.948204-3.14424 1.440142-3.23648 1.82681-.0694.291042-.439 2.493677-.82128 4.894747-.78011 4.899777-.42312 4.209934-4.3136 8.335494-.96115 1.019236-1.94679 2.090799-2.1903 2.38125-.33748.402527-.57748 1.902786-1.0094 6.30967-.31166 3.179866-.51312 5.835102-.4477 5.900526.0654.06542.68967-.242988 1.38721-.685358.69755-.442371 1.30599-.766586 1.35209-.720482.0461.0461-.74073 1.860846-1.74853 4.032763-1.82969 3.94317-1.83264 3.953285-2.0209 6.928464l-.18853 2.979529 8.30473-.06997 8.30473-.06997zm-22.14575 2.315105c.0674-.181901 1.36961-12.832292 2.89388-28.11198 1.52428-15.279687 2.83126-28.3170303 2.9044-28.97187407l.133-1.190625-.50154 1.4552083c-1.36095 3.94875297-3.17556 10.69181977-2.91979 10.84989877.17499.108147.0368.597918-.37834 1.340966-.35971.643826-1.53125 4.147156-2.60341 7.785176l-1.94939 6.614584 1.14105.08064c.62758.04435 1.14105.137152 1.14105.206222 0 .06907-.4877.742563-1.08377 1.496658-1.72667 2.184394-3.31792 5.683406-4.73967 10.422059-.72617 2.420308-1.32031 4.503944-1.32031 4.630303 0 .126357.83344.229741 1.85209.229741 1.01864 0 1.85193.0893 1.85176.198437-.00018.109141-.73353 1.091406-1.62968 2.182813-2.96774 3.614401-5.20991 7.548607-5.9185 10.384896L0 58.84177921h5.59323c4.23288 0 5.62303-.08044 5.71572-.330729z"/>
</svg>
