<svg xmlns="http://www.w3.org/2000/svg" width="49.741638mm" height="61.118752mm" viewBox="0 0 49.741638 61.118752">
  <path d="M28.23018 24.49793c-.13647-.409434-1.81078-.908214-3.12146-.929886-1.21083-.02003-2.78514.371139-3.2702.812536-.15545.141456.40684.89821 1.44782 1.948526l1.70199 1.717249 1.66294-1.648161c.91462-.906491 1.62513-1.761609 1.57891-1.900264zm3.16707 8.773422c.62955-1.190775.61867-4.25347-.0194-5.461465l-.47401-.897401-1.73417 1.734169-1.73417 1.734169 1.66659 1.875214c.91663 1.031364 1.70573 1.87521 1.75357 1.87521.0478 0 .29155-.386953.54159-.859896zm-8.9077-2.75677c0-.129294-.77042-.998654-1.71205-1.931914l-1.71205-1.696836-.45469 1.043022c-.59408 1.362787-.59104 3.905041.006 5.276144l.46099 1.058124 1.70575-1.75673c.93817-.9662 1.70575-1.862516 1.70575-1.99181zm4.4499 6.649125c.75401-.22392 1.37094-.547889 1.37094-.719931 0-.380924-2.91941-3.370861-3.29134-3.370861-.37233 0-3.32325 2.959629-3.32325 3.333057 0 .168801.32742.433739.72761.588753 1.6948.656495 2.74241.695693 4.51604.168982zm-6.13099 2.637763c-4.6627-1.043508-10.69766-4.331515-14.72307-8.021529l-1.19063-1.091422 1.45521-1.3428c3.10655-2.866589 7.89508-5.678242 12.24716-7.1911 2.31888-.806077 2.62992-.847421 6.40596-.85144 3.43066-.0037 4.2378.07991 5.95313.616326 4.12191 1.288994 8.79299 4.041783 12.17083 7.172576l1.71979 1.594009-1.32291 1.237959c-3.43635 3.215661-9.22346 6.624082-12.96459 7.635714-2.29.619236-7.48821.748091-9.75088.241707zm8.22347 20.98655c.29676-.381632 2.45346-7.399232 2.45346-7.983199 0-.278897-.3664-.412401-1.28892-.469641l-1.28892-.07997 1.88423-2.856791c1.41859-2.150798 2.16663-3.023552 3.02694-3.531595.62849-.371144 1.17971-.633402 1.22494-.582795.0452.05061.41993.746858.83268 1.547223.65466 1.269479.76169 1.370785.83855.79375.0485-.363802.14044-.816465.20439-1.005914.0743-.220028 1.63726.807418 4.32679 2.844271 2.31578 1.753798 4.28784 3.188726 4.38236 3.188726.14494 0-1.02398-1.418143-5.8653-7.115794-.78084-.918956-.75412-1.038098.25507-1.137222l.85989-.08446-1.19062-.625782c-1.92991-1.014341-1.92227-.994381-.89488-2.340346.50864-.66635 1.15861-1.669857 1.44438-2.230014.58128-1.139391 1.03315-1.32193 1.04751-.423156.005.327422.29505.944613.64402 1.371534l.6345.776221 3.25859-2.735276c1.79222-1.504402 3.40741-2.918256 3.58932-3.141895.23095-.283951.33073-1.573392.33073-4.27423 0-2.689484-.10075-3.997955-.33073-4.295513-.45117-.583724-6.6042-5.758654-6.84708-5.758654-.31788 0-1.42435 1.69023-1.3418 2.049706.15142.659384-.51136.312166-.95155-.498499-.2479-.456525-.83767-1.350523-1.31062-1.986666-.47294-.636141-.85989-1.249849-.85989-1.363796 0-.113947.68461-.554333 1.52135-.978634l1.52136-.771458-1.04333-.143556-1.04334-.143555 3.03-3.571876c3.77027-4.4445513 3.95433-4.6793143 3.42229-4.3651163-.21828.128909-2.18281 1.5949093-4.36562 3.2577793l-3.96875 3.0234-.0821-.958031c-.0452-.526918-.16919-.958032-.27561-.958032-.10642 0-.51466.654844-.9072 1.455209-.39253.800364-.80429 1.451492-.91501 1.446951-.11072-.0045-.66588-.293706-1.23369-.642587-.72069-.442818-1.62755-1.53869-3.00373-3.629764l-1.97135-2.9954343 1.35008-.07997c.74255-.04399 1.35009-.195791 1.35009-.337348 0-.672427-2.24282-7.57620403-2.59349-7.98319983C28.54814.06402387 27.99213-3e-8 24.87082-3e-8c-3.11664 0-3.67953.064619-4.03332.4630209-.22614.2546614-.77118 1.65364593-1.21119 3.10885423-.44001 1.4552084-.97616 3.2113803-1.19144 3.9026046l-.39142 1.256771h1.29702c.76553 0 1.29702.119054 1.29702.290536 0 .159795-.82986 1.5587803-1.84414 3.1088543-1.36034 2.078965-2.12026 2.974491-2.89669 3.413631-.5789.327422-1.11655.595312-1.19476.595312-.0782 0-.53083-.74414-1.00581-1.653646l-.86361-1.653646-.0822.992188c-.0452.545703-.16433.989398-.26469.98599-.10035-.0034-2.01091-1.37973-4.24568-3.05849-2.23476-1.678761-4.10107-3.0144303-4.14735-2.9681533-.0463.04628 1.3843 1.8095503 3.17906 3.9183863l3.2632 3.834246-.76949.206003c-.42323.113301-.7695.26022-.7695.326487 0 .06627.66596.457234 1.47992.868816l1.47991.74833-.65064.777266c-.35785.427496-1.03403 1.402343-1.50261 2.166327-.87555 1.42752-1.32854 1.739348-1.34526.926042-.005-.254661-.29011-.806143-.63307-1.225513-.73813-.902597-.33954-1.11969-4.72821 2.575216L0 26.51191v4.023683c0 2.826663.0984 4.144113.33073 4.428493.1819.222641 1.58088 1.4566 3.10885 2.742128 1.52797 1.285529 2.98077 2.508623 3.22845 2.717988.40097.338947.52329.297688 1.11612-.376454.36619-.416418.66956-1.025012.67416-1.352434.0136-.967764.48282-.685665 1.19403.717836.36599.722233 1.03868 1.738265 1.49488 2.257846.4562.519583.78384.985903.72809 1.036272-.0557.05037-.7562.429276-1.55656.842021-1.28011.660146-1.37562.762179-.79375.847981.3638.05365.74177.176755.83994.273574.0982.09682-1.29 1.902439-3.08482 4.012491-1.79482 2.110052-3.22513 3.875519-3.17849 3.923258.0466.04774 1.92133-1.291712 4.16596-2.976563 2.24463-1.684848 4.16018-3.063362 4.25678-3.063362.0966 0 .17745.267891.17968.595313.009 1.364895.43223 1.247542 1.18575-.329012.41777-.87407.82699-1.585503.90937-1.58096.0824.0046.60698.289256 1.16577.632696.68827.423016 1.64951 1.572517 2.98001 3.563617l1.96402 2.93918h-1.28226c-.70525 0-1.34474.06248-1.4211.138835-.14747.147471 2.15068 7.700862 2.51365 8.261686.15538.240075 1.28875.330729 4.13479.330729 2.82304 0 3.99274-.09259 4.17791-.330729z"/>
</svg>
