<svg xmlns="http://www.w3.org/2000/svg" viewBox="0 0 59.260379 57.8795" height="218.75716" width="223.97624">
  <path d="M28.27893 32.06216c.30633-.79828.15679-1.63351-.59357-3.3152-1.02579-2.299-3.05256-10.33207-3.06414-12.14471-.0108-1.67938.94465-3.92896 2.1557-5.07588.7078-.67031.77812-.68332 1.80074-.33311.90446.30975 1.22213.30955 2.11667-.001 1.01131-.35147 1.08131-.33843 1.78905.33311 1.21172 1.14975 2.16645 3.39836 2.15571 5.07722-.0116 1.81264-2.03836 9.84571-3.06414 12.14471-.4148.92963-.75235 2.00119-.75012 2.38125.005.83243.4967 1.65325.69669 1.16274.0722-.17711.39246-.7129.71167-1.19063.3192-.47773 1.45758-2.29735 2.52974-4.0436 1.07216-1.74625 2.21857-3.59172 2.54759-4.10105 2.94233-4.55472 5.10944-8.2695 4.99628-8.5644-.0754-.19637-.44095-.5197-.81245-.71852-1.21029-.64772-3.13559-3.03212-4.14998-5.13957-1.776-3.68972-3.34497-5.68275-6.12672-7.78262-1.32632-1.0012-1.84867-1.0012-3.175 0-2.78679 2.10368-4.34415 4.08411-6.05687 7.70227-.9795 2.06924-2.99787 4.56597-4.21983 5.21993-.37149.19882-.73709.52215-.81244.71852-.11182.29139 2.04604 3.99563 4.91202 8.43211 1.66964 2.58457 5.05562 8.06683 5.43349 8.7974.49377.95465.74033 1.0657.97991.44138zm2.51383 24.363307c.39879-.727604 1.59767-2.93026 2.66418-4.894791 1.06651-1.964532 2.11875-3.780235 2.33831-4.034896.55913-.648504 1.77136-.582885 2.44392.132292.57355.609885.57883.829812.0857 3.571875-.2441 1.357312.29958 1.037653 1.57502-.926042 2.18603-3.365651 8.30236-12.899372 12.6034-19.645315 2.3659-3.71078 4.51487-7.05253 4.77548-7.42612.26062-.37358.8138-1.32608 1.22929-2.11666.66005-1.25593.75504-1.72139.75226-3.68638-.003-1.81126-.11753-2.46402-.59074-3.35394-.6396-1.20284-3.95179-5.11273-4.33115-5.11273-.12887 0-.23431.59084-.23431 1.31299 0 1.88436-.89439 4.04584-2.23812 5.40886-1.20691 1.22424-2.4797 1.80787-6.11595 2.8044l-2.1178.58039-1.02498 1.62741c-.56374.89507-1.40633 2.22272-1.87244 2.95032-.46611.72761-1.95271 3.10886-3.30355 5.29167-2.87413 4.64427-3.10704 5.01626-5.23391 8.359374-.88826 1.396198-1.75907 2.854713-1.93514 3.241145-.17607.386435-.4605.702607-.63207.702607-.17156 0-.45599-.316172-.63206-.702607-.17607-.386432-1.04688-1.844947-1.93514-3.241145-2.12687-3.343114-2.35978-3.715104-5.23391-8.359374-1.35085-2.18281-2.83745-4.56406-3.30355-5.29167-.46611-.7276-1.30748-2.05335-1.86972-2.94611l-1.02225-1.6232-2.65897-.73231c-3.19661-.88038-4.46845-1.4843-5.61731-2.66731-1.32832-1.36781-1.99919-2.91292-2.14466-4.93946-.0709-.98775-.22565-1.76165-.34389-1.7198-.47072.16665-3.71378 3.99432-4.27318 5.04349-.48421.90813-.59601 1.54027-.59552 3.367.00053 1.95864.0979 2.4345.75415 3.68638.41446.79058.96679 1.74308 1.2274 2.11666.26062.37359 2.40959 3.71534 4.77549 7.42612 4.30104 6.745943 10.41737 16.279664 12.6034 19.645315.63799.982265 1.27491 1.785937 1.41537 1.785937.3173 0 .31734.0021-.0319-2.003454-.24832-1.425948-.22623-1.743162.16273-2.336776.54151-.826458 1.93445-.94838 2.55724-.223832.21889.254661 1.20628 1.951302 2.1942 3.770312 2.34631 4.320159 3.35326 6.168776 3.50289 6.430796.28039.490998.95318-.0332 1.63183-1.271421z"/>
</svg>
