<svg xmlns="http://www.w3.org/2000/svg" viewBox="0 0 59.344244 58.730458" height="221.97337" width="224.29321">
  <path d="M31.24462 3.38071C32.21283 1.9984 31.30522 0 29.7092 0c-1.66776 0-2.60244 1.96319-1.60958 3.38071.58818.83973 2.55683.83973 3.145 0zm-7.04141 8.82351c.19988-.12672.31418-.5536.26458-.98814-.0645-.56477-.24699-.78767-.69721-.85149-1.17026-.1659-1.76059.85319-.95872 1.65505.46354.46355.86689.51706 1.39135.18458zm13.85372 1.05477c2.32864-2.6062-.9368-6.36973-3.93862-4.5394-1.68274 1.02602-1.7521 3.77804-.12755 5.06063 1.07965.8524 3.06638.59772 4.06617-.52123zm-6.66502 26.71449c4.03421-.66568 7.1627-2.97576 8.93207-6.59545.97809-2.00092.98971-2.06251.98178-5.19991-.007-2.89289-.0723-3.31396-.73191-4.73901-2.03604-4.39906-6.12074-7.03494-10.90173-7.03494-4.78336 0-8.88352 2.64753-10.89483 7.03494-.64889 1.41548-.7184 1.86555-.73191 4.73901-.0148 3.14344-.005 3.19514.97488 5.19991 1.71699 3.51253 4.882 5.91142 8.66749 6.56943 1.68773.29338 2.06772.29605 3.70416.026zm.46998 17.16525c1.12396-.87932 2.22216-1.74453 2.44044-1.92269.21828-.17816.87313-.67843 1.45521-1.11171.58208-.43328 1.11786-.85315 1.19062-.93305.0728-.0799 3.13012-2.49441 6.79413-5.36557 3.66401-2.87117 7.19541-5.81377 7.84756-6.53912 1.70238-1.89345 2.78072-4.63705 2.9919-7.61227.10821-1.52447.0701-2.41671-.10791-2.52674-.15136-.0935-1.62648.88949-3.27804 2.18451s-3.08228 2.30584-3.17938 2.24625c-.2318-.14225.24294-1.84261.84461-3.02509.46561-.91509 2.44334-3.00412 3.63204-3.83644 1.69748-1.18858 3.90894-5.72432 4.214-8.64299l.16676-1.59544-.63627.33155c-.34995.18235-1.41018.95186-2.35606 1.71002-2.09774 1.68141-5.03419 3.92801-5.50698 4.21326-.60695.36618-.0781-1.6863.82942-3.21888.55274-.93346 1.56579-1.97954 3.07477-3.175 3.14672-2.49294 4.62876-4.13295 5.67583-6.28079.93353-1.91493 1.6578-5.1636 1.2938-5.80326-.22485-.39512-1.26955.33816-7.35122 5.15985-1.74625 1.38447-4.18703 3.28411-5.42396 4.22141-1.23692.93731-2.69093 2.10306-3.23113 2.59057l-.98218.88638.7808 1.38351c1.53787 2.72495 1.91241 4.22856 1.91828 7.70113.005 2.75395-.0831 3.41154-.66176 4.9587-1.88168 5.03111-5.94574 8.88449-10.66729 10.11429-3.47169.90426-8.12156.34393-11.28376-1.35974-1.85699-1.00047-4.63651-3.65851-5.73838-5.48759-1.74929-2.90378-2.22842-4.67714-2.22242-8.22567.006-3.47256.3804-4.97617 1.91827-7.70112l.78081-1.38351-.98218-.88638c-.5402-.48751-1.99421-1.65326-3.23114-2.59057-1.23693-.9373-3.67771-2.83694-5.42396-4.22141C1.36546 6.57344.32075 5.84016.09591 6.23528c-.364.63966.36026 3.88833 1.29379 5.80326 1.04707 2.14784 2.52912 3.78785 5.67584 6.28079 1.50898 1.19546 2.52203 2.24154 3.07477 3.175.9075 1.53258 1.43637 3.58506.82942 3.21888-.4728-.28525-3.40925-2.53185-5.50698-4.21326-.94589-.75816-2.00612-1.52767-2.35606-1.71002l-.63627-.33155.16676 1.59544c.30506 2.91867 2.51652 7.45441 4.214 8.64299 1.18869.83232 3.16642 2.92135 3.63203 3.83644.60167 1.18248 1.07642 2.88284.84461 3.02509-.0971.0596-1.52781-.95123-3.17937-2.24625-1.65157-1.29502-3.11008-2.28831-3.24115-2.20731-.13107.081-.23761.7058-.23677 1.38844.005 3.88776 1.39557 7.24248 4.02986 9.72056.92071.86612 4.27858 3.59882 7.46193 6.07268 3.18335 2.47385 5.91799 4.61698 6.07698 4.7625.15899.14552.76532.61976 1.34741 1.05386.58208.43411 1.23692.93675 1.4552 1.11698 2.11585 1.74704 4.40469 3.50493 4.57102 3.51064.11296.004 1.12499-.71238 2.24896-1.59171z"/>
</svg>
