<svg xmlns="http://www.w3.org/2000/svg" viewBox="0 0 31.816411 58.898821" height="222.60971" width="120.25101">
  <path d="M10.66319 50.240839c-2.40295-1.18943-3.88712-4.24866-3.68615-7.59805.46017-7.66904 9.80826-11.17833 15.30676-5.74618 1.66499 1.64491 2.42749 3.3515 2.57174 5.75594.141 2.35027-.2479 3.78007-1.53831 5.65562-1.93313 2.8097-4.52875 3.02188-5.27182.43093-.12971-.45226-.27493-2.35751-.32272-4.2339-.0951-3.73441-.26363-3.86863-1.13746-.90595-.91816 3.11302-1.72441 3.81408-3.12203 2.71471l-.67209-.52866.14779 2.1562c.12974 1.89285.0882 2.19979-.3402 2.51304-.62165.45456-.57506.45971-1.93551-.2137zm9.7591 8.08856c5.03881-1.48104 9.00178-5.33516 10.72594-10.43132 1.20461-3.56052.74662-8.64145-1.10099-12.21433-.29913-.57844-.4344-1.78717-.49353-4.41013-.0781-3.46496-.45601-5.4985-.96348-5.18486-.13134.0812-.23881.66029-.23881 1.28692 0 2.15282-1.85532 3.32412-3.175 2.00444-.47421-.47422-.52916-.88194-.52916-3.92642 0-2.51762-.1366-3.93916-.52755-5.49011-.58917-2.33735-3.36384-8.08152-4.55363-9.42702l-.76747-.86791.12234.79375c.0673.43657.37121 2.09385.67537 3.68285.61384 3.20684.71125 6.43463.24953 8.26829-.1876.74504-.67709 1.59799-1.28195 2.23383-.88052.92562-1.10998 1.02858-2.29245 1.02858-.97985 0-1.46966-.14502-1.92612-.57028-1.59814-1.4889-2.28428-5.28353-2.00189-11.07139.17061-3.49699.42149-5.56946 1.33818-11.05431.44925-2.688.36831-3.59372-.22961-2.56953-.98645 1.68971-3.25673 7.11773-4.28777 10.25166-1.35588 4.1213-1.81531 6.36233-2.2372 10.9128-.52728 5.68723-1.53564 9.11448-2.75049 9.34844-.82267.15843-1.08745-.42075-1.22513-2.67983l-.13229-2.17069-.44906.81976c-.83318 1.52098-1.13948 4.10566-.76201 6.43008.24358 1.49988.25876 2.22674.0545 2.60844-.15576.29103-.58432 1.45162-.95237 2.5791-.9371 2.87071-.94776 6.66454-.0264 9.38787 1.96398 5.80501 6.7777 9.92688 12.69278 10.86854 1.83871.29271 5.29126.0785 7.04573-.43722z"/>
</svg>
