<svg xmlns="http://www.w3.org/2000/svg" viewBox="0 0 58.716743 56.611781" height="213.96577" width="221.92155">
  <path d="M44.4396 16.70167c0-.28227-.8178-2.13225-2.64618-5.98604-.75945-1.60073-1.71101-3.6248-2.1146-4.49792-.40358-.87313-1.21622-2.6293-1.80587-3.90261C37.28331 1.0418 36.68257 0 36.53797 0c-.14459 0-.44984.68461-.67831 1.52135-.22847.83675-.59411 2.12714-.81252 2.86753-.21842.74039-.39712 1.53606-.39712 1.76816 0 .23209 1.14371 2.7517 2.54159 5.59914l2.54158 5.17715h2.35321c1.29426 0 2.3532-.10424 2.3532-.23166zm-25.2041.11314c.035-.029 1.1996-2.34981 2.58802-5.15728l2.52441-5.10449-.80208-3.12279c-.44114-1.71754-.80208-3.19197-.80208-3.27652 0-.0845-.12588-.15373-.27974-.15373-.15385 0-.88171 1.27992-1.61746 2.84427-.73574 1.56435-1.75771 3.73724-2.27103 4.82865-2.81634 5.98798-4.03385 8.70943-4.03385 9.01666 0 .35562 4.27865.46977 4.69381.12523zm39.48077 21.61592c-.027-.4940985-7.12164-9.26262854-8.75777-10.82401954-.6343-.60531896-1.92718-1.51548896-2.87306-2.02257996-5.26259-2.821319-8.46147-4.547199-9.46824-5.10837-.62363-.3476-1.53773-.632009-2.03132-.632009-1.40056 0-1.85245.807549-2.24857 4.01829-.18515 1.500719-.35248 2.847649-.37185 2.99317-.0222.16668 2.27026.31354 6.19511.39686996 5.66672.12033 6.301.180171 7.01146.661458l.78112.529172-4.43178.0725c-2.43747.0399-4.43177.17562-4.43177.30159 0 .125982.50602.47075004 1.12448.76615204.61847.29541 3.08901 1.483108 5.49011 2.63933 2.40109 1.156229 5.13953 2.465049 6.08541 2.908498.94589.44345 2.96995 1.41101 4.49792 2.150142 2.70257 1.3073185 3.45106 1.5583075 3.42875 1.1497675zm-56.1262-.7231595c1.02563-.50687 2.61627-1.2682 3.53476-1.69183.91849-.42363 3.27733-1.535038 5.24186-2.46979 1.96453-.93476 4.46484-2.103869 5.55625-2.598039 4.90546-2.22107204 4.8704-2.34156004-.70772-2.43257204l-4.45166-.0726.78112-.529169c.71045-.48129 1.34473-.541131 7.01146-.661461l6.23034-.13228896-.063-.661461c-.28109-2.951349-.63387-5.09097-.91313-5.53812-.18267-.292499-.65948-.66741-1.05958-.833139-.66042-.273561-1.08772-.11889-4.63754 1.678589-7.69637 3.89713-9.2177 4.755241-10.35502 5.84082996C7.12157 29.16870146.02741 37.9367995.00044 38.43076c-.0217.39823.76532.178441 2.58963-.7231605zm27.38224 2.4517905c.0902-1.059881.40191-4.7845685.69278-8.2770685 1.06511-12.788872 1.07215-12.837492 2.00884-13.8595825.70749-.77201 1.01103-.9081 2.07584-.93066 1.13329-.024 1.23432-.0777 1.10639-.58765-.24778-.9878-6.04624-13.06482-6.27272-13.06482-.11987 0-.62415.86321-1.12062 1.91823-.49647 1.05503-1.46642 3.10886-2.15545 4.56407-3.44398 7.27363-3.53898 7.55457-2.40776 7.12048.70389-.27011 2.26184.42583 2.91363 1.3015205.48338.64944.66134 1.3155.78952 2.95508.091 1.164171.34458 4.259791.56348 6.87917096.2189 2.61936904.46187 5.53640104.53992 6.48228904.4064 4.9249005.73483 7.6530695.9084 7.5457995.1066-.0659.26759-.98697.35775-2.046859zm2.69334 12.98679l1.5875-3.456278 2.51354-.844132c3.69218-1.239959 6.47577-2.888769 9.28268-5.498439 1.50309-1.397471 4.21107-5.023062 4.21107-5.6380115 0-.0885-.74414-.513559-1.65365-.94457-1.55219-.73556-1.67447-.755158-1.99304-.31949-2.66814 3.6488895-4.77367 5.6289205-7.7065 7.2471305-1.77437.97903-5.00202 2.080559-6.09637 2.080559-1.08655 0-1.18259.300832-1.70245 5.332611-.47861 4.632561-.51545 5.519402-.22872 5.506101.10914-.005.91281-1.564531 1.78594-3.465481zm-4.7879-1.923639c-.51097-4.936649-.68185-5.449592-1.81549-5.449592-.77594 0-4.45987-1.22999-5.59721-1.8688-3.14806-1.76816-5.29774-3.64867-7.17743-6.2786995-.65457-.915858-1.26866-1.63023-1.36465-1.5875-.096.0427-.85573.367512-1.68832.721701-.83259.354209-1.5138.78095-1.5138.94833 0 .5345905 2.11208 3.3790285 3.79509 5.1110595 2.9289 3.0142 6.73436 5.30569 10.39414 6.258942.84445.219958 1.66718.548568 1.82829.73025.16111.181689.99862 1.891329 1.86114 3.799199 1.05549 2.33471 1.60096 3.286279 1.66837 2.91042.0551-.307139-.12047-2.69003-.39013-5.29531z"/>
</svg>
