<svg xmlns="http://www.w3.org/2000/svg" viewBox="0 0 36.257016 59.403817" height="224.51836" width="137.03439">
  <path d="M20.89235 48.096321c2.18104-.7443 4.27565-2.716811 5.21761-4.91344.20524-.478628.77693-1.43224 1.27041-2.11913 2.94863-4.10428 4.34239-10.866879 3.22575-15.65148-.36854-1.57914-.53933-1.53502-.82891.21415-.31845 1.923541-1.66446 2.741871-2.74029 1.66604-.41456-.414559-.51053-1.06754-.63187-4.29948-.13351-3.55618-.20732-3.98216-1.10516-6.378081-.94609-2.5247-2.63457-5.78953-3.6667-7.0899l-.52501-.66146.18028 1.32292c.0992.7276.28304 1.6801.40863 2.11667.12558.43656.36585 1.9541.53393 3.37232.59091 4.986101-.76378 8.137051-3.49837 8.137051-2.81494 0-3.99568-4.24951-3.38812-12.193851.15121-1.97719.46412-4.77516.69536-6.21771C16.58199 2.01921 16.78493 0 16.58273 0c-.3702 0-2.57472 5.01551-3.95403 8.99583-1.15894 3.34439-1.7782 6.02073-2.04219 8.826-.66705 7.088331-1.39184 10.0852-2.5948 10.729-.7917.423712-1.15493-.23636-1.3081-2.377149-.0734-1.02543-.2298-1.76784-.34763-1.64978-.38752.38827-1.03526 3.341899-1.03526 4.720669 0 1.476413.7551 5.305531 1.45933 7.400222.63633 1.892728 2.51184 5.580949 3.70115 7.278359 1.82385 2.60305 2.63207 3.303392 4.76139 4.12587 1.07591.415581 4.5067.444209 5.66976.0473zm2.01477 10.759334c6.09925-1.58865 11.28454-6.90866 12.93255-13.268523.55525-2.142771.55666-7.035221.003-9.03391-.57615-2.078281-1.45669-4.27405-1.714-4.27405-.1183 0-.34642.684609-.50693 1.521349-.57204 2.981981-1.1425 4.703709-2.29357 6.922259-.64189 1.237171-1.38349 2.492611-1.64802 2.789873-.26452.297259-.64089.957188-.83636 1.466519-1.93587 5.04407-7.43065 8.344331-12.37583 7.433154-4.28766-.790041-7.79692-3.788056-9.17006-7.834143-.24617-.725342-.60888-1.497402-.80604-1.71568-.19715-.218282-.84088-1.408912-1.4305-2.645831-1.09067-2.28808-1.8152-4.67604-2.11-6.954261-.0901-.69615-.28284-1.29146-.42836-1.322919-.38158-.0825-1.37382 2.04098-1.98606 4.25033-.6678 2.40978-.72204 7.036128-.11019 9.39731 1.83708 7.089544 7.80174 12.600103 14.79623 13.669763 2.0072.30696 5.70731.11376 7.68454-.40124z"/>
</svg>
