<svg xmlns="http://www.w3.org/2000/svg" width="59.002079mm" height="38.038967mm" viewBox="0 0 59.002079 38.038966">
  <path d="M27.44206 23.2538825c-1.22318-.610904-1.89111-1.3814-2.46296-2.84118-1.09073-2.784359 1.41019-6.162977 4.56196-6.162977 1.20711 0 3.02338 1.031499 3.84529 2.183834.4895.686273.61261 1.204484.61261 2.578666 0 2.044311-.58487 3.06228-2.35564 4.10002-1.35831.796021-2.79409.844426-4.20126.141637zm4.13955 5.947739c4.29037-.90899 7.28579-4.079301 8.10079-8.573765.77431-4.270103-1.68027-9.078847-5.59892-10.968774-6.07806-2.931388-12.97151.266202-14.745 6.839601-1.47041 5.450073 2.12009 11.321297 7.78131 12.724072 1.75854.435743 2.31791.433092 4.46182-.02114zm18.68594 8.662167c-.002-.109141-.29947-1.269164-.66146-2.577827-1.26871-4.586574-.98185-5.241822 5.00042-11.422063 2.41756-2.497569 4.39557-4.680821 4.39557-4.851673s-1.97801-2.354104-4.39557-4.851674c-6.00305-6.201702-6.26801-6.81428-4.97995-11.5134457.37305-1.360972.6064-2.546368.51855-2.634214-.0879-.08785-1.9112.282736-4.0519.823515-4.42739 1.118441-5.42516 1.18046-7.61878.473563-2.28294-.735676-4.36331-1.147316-5.26922-1.042611-.7647.08838-.79626.145006-.86236 1.54695-.0377.800364.0243 1.596771.13793 1.769791.11359.17302 1.09277.49937 2.17596.725221 2.24927.468986 5.06266 1.730411 7.401 3.3183487 3.1323 2.127103 6.94252 6.321282 8.98387 9.889194l.85258 1.490158-.70414 1.293746c-1.82607 3.355078-5.99866 7.967996-9.13231 10.096014-2.33834 1.587939-5.15173 2.849364-7.401 3.318348-1.08319.225851-2.06237.552202-2.17596.725223-.11359.173019-.17566.969426-.13793 1.76979.0661 1.401943.0977 1.458566.86236 1.54695.90591.104704 2.98628-.306935 5.26922-1.042612 2.1584-.695544 3.46691-.622646 7.29849.406617 3.38224.908558 4.50043 1.09333 4.49463.742691zm-37.15228-.727604c4.10225-1.060574 5.23064-1.12477 7.41238-.421704 2.28294.735677 4.36331 1.147316 5.26922 1.042612.7647-.08838.79626-.145007.86236-1.54695.0377-.800364-.0243-1.596771-.13793-1.76979-.11359-.173021-1.09277-.499372-2.17596-.725223-2.24927-.468984-5.06266-1.730409-7.401-3.318348-3.13257-2.127282-7.30623-6.740907-9.13089-10.09341l-.70273-1.291146.70273-1.291146c.81665-1.500457 3.19477-4.683613 4.73977-6.344278 3.09601-3.327777 8.05683-6.3048997 11.78281-7.0711757 1.0883-.223819 2.07168-.548506 2.18527-.721526.11359-.17302.17566-.969427.13793-1.769791-.0661-1.401944-.0977-1.458567-.86236-1.54695-.90591-.104705-2.98628.306935-5.26922 1.042611-2.19362.706897-3.19139.644878-7.61878-.473563-2.1407-.540779-3.96405-.911361-4.0519-.823515-.0879.08785.1455 1.273242.51855 2.634214 1.28806 4.6991657 1.0231 5.3117437-4.97995 11.5134457C1.97801 16.6581215 0 18.8413735 0 19.0122255s1.97801 2.354104 4.39557 4.851673c5.98227 6.180241 6.26913 6.835489 5.00042 11.422063-.36199 1.308663-.65965 2.468686-.66146 2.577827-.006.341823.69325.22574 4.38074-.727604z"/>
</svg>
