<svg xmlns="http://www.w3.org/2000/svg" viewBox="0 0 59.52726 59.781241" height="225.94484" width="224.98492">
  <path d="M49.25747 26.252656c-1.40228-7.582141-6.91961-13.610329-14.33114-15.658056-1.08848-.300736-2.2366-.546793-2.55138-.546793-.72577 0-.89352-.452698-.89352-2.411193 0-1.216379.0988-1.612097.43491-1.741058.62628-.240325 5.22163.91289 7.22592 1.813364 1.99467.896149 2.65792 1.430602 2.65792 2.14177 0 .28304.40481.91943.89958 1.414202.75651.756512 1.08894.899582 2.09021.899582 1.0186 0 1.33102.140398 2.16237.971745 2.09443 2.09443 4.52664 6.115054 5.53807 9.154849.60461 1.81714 1.26749 5.186482 1.08004 5.489779-.0879.142245-1.01994.258628-2.07118.258628h-1.91134zm-43.43701.794631c.006-1.565307.25454-2.126752 1.18628-2.67649 1.17797-.695021 1.62798-2.047894 1.19527-3.593383-.28296-1.010621-.25512-1.251919.26122-2.264028 2.07252-4.062463 6.23408-8.124208 10.57005-10.316529 1.60685-.812438 3.75983-1.539692 5.91701-1.998693 2.98084-.63426 2.86143-.705584 2.77195 1.655667l-.0773 2.039357-1.71979.342556c-1.88986.37643-2.60948.615992-4.72765 1.573819-5.56542 2.516665-10.16582 8.409754-11.04284 14.145834-.30356 1.985378-.42172 2.084078-2.49507 2.084078H5.81682l.004-.992188zm20.69794 9.525c.35215-.400182 1.19378-1.256061 1.87029-1.901954l1.23002-1.174348 1.96149 1.901952c1.07882 1.046075 2.07512 1.901954 2.214 1.901954.13888 0 .9372-.717822 1.77403-1.595159 1.73793-1.822032 1.78885-1.532372-.70905-4.033563-.83912-.840224-1.52567-1.641049-1.52567-1.779611 0-.138562.68655-.939387 1.52567-1.779611 2.46627-2.469526 2.4065-2.232639.95496-3.784452-2.01697-2.156307-1.94995-2.156973-4.21772.04196l-1.97771 1.917676-1.23002-1.174348c-.67651-.645892-1.51814-1.501772-1.87029-1.901954-.35214-.400182-.79015-.727604-.97334-.727604-.33576 0-3.32405 2.980925-3.32405 3.315848 0 .09907.85356 1.060413 1.8968 2.136309l1.8968 1.956176-1.8968 1.956176c-1.04324 1.075896-1.8968 2.037236-1.8968 2.136309 0 .334923 2.98829 3.315848 3.32405 3.315848.18319 0 .6212-.327421.97334-.727604zm2.05261 6.883781c-3.56223-.38449-6.11285-1.599932-8.46667-4.034597-2.67495-2.766827-3.96875-5.873546-3.96875-9.529913 0-3.656367 1.2938-6.763086 3.96875-9.529913 2.72933-2.823069 5.64954-4.025329 9.71297-3.998858 2.61201.01702 4.49833.5265 6.58754 1.779251 9.00525 5.399811 9.00525 18.099229 0 23.499039-2.26942 1.360813-5.37516 2.080368-7.83384 1.814991zm3.08681 10.33618c-.22053-.22053-.23291-3.07262-.0158-3.63843.0883-.23018.41814-.41851.73292-.41851 1.02168 0 4.49021-1.07415 6.11794-1.89463 5.69102-2.868656 9.61272-8.082088 10.76458-14.310218l.33046-1.786819h1.91135c1.05124 0 1.98327.116383 2.07118.258628.19031.307933-.48357 3.707664-1.08752 5.486561-1.78734 5.264489-5.56119 10.054878-10.23044 12.986158-1.14661.71982-1.41838.78202-2.84981.65222l-1.58232-.14348-1.06907 1.12382c-.78194.822-1.43776 1.22198-2.44186 1.48932-1.50903.40176-2.38099.46601-2.65162.19538zm-6.92327-.21662c-7.31723-1.61759-13.28383-6.32193-16.73383-13.19373-1.02909-2.049758-2.17006-6.054203-2.17857-7.646069l-.005-.992188h1.84277c2.0721 0 2.19169.09956 2.49381 2.076186.0967.632579.4648 1.977337.81802 2.98835 2.23564 6.398879 8.06823 11.367711 14.95373 12.739191l1.71979.34256.0773 2.03935.0773 2.03936-.73873-.021c-.40631-.0116-1.45311-.17896-2.32624-.37198zm6.39916 6.00625c.17255-.10973.35115-.78553.39687-1.50179.0929-1.45536-.16287-1.30517 3.36341-1.97481 1.01306-.19238 1.75674-.22371 1.85208-.078.30916.47238 1.32647.85181 2.28389.85181 1.40102 0 2.44403-.84394 2.80251-2.26761.16231-.64459.39006-1.17198.50612-1.17198.11605 0 1.09246-.58955 2.16978-1.31011 3.85491-2.57832 7.22906-6.538753 9.25294-10.860722 1.33017-2.840543 2.32246-6.30097 2.32489-8.10763.002-1.248452.23755-1.41737 1.97918-1.41737 1.27922 0 1.46188-.231418 1.46188-1.852083 0-1.620666-.18266-1.852084-1.46188-1.852084-1.71575 0-1.9777-.176799-1.9777-1.334807 0-4.218285-3.18388-11.081239-7.11376-15.333942-1.10457-1.195302-1.34548-1.628791-1.34883-2.427096-.008-1.931238-2.05376-3.308624-3.93823-2.651696-.55626.193914-.94686.179101-1.3957-.05293-2.59502-1.341508-5.88584-2.38581-9.48682-3.010525l-1.19062-.206555-.0799-1.380263C31.44302.073151 31.16683-.10677 29.07897.042407l-1.1694.08355-.0788 1.5039-.0788 1.5039-1.50867.179644c-3.9142.466081-8.59585 2.271169-11.82742 4.560264-3.05805 2.166171-6.49737 5.990821-8.02227 8.921042-.66861 1.28478-1.06724 1.713632-2.09048 2.248957-.97432.509732-1.33578.880328-1.57578 1.615621-.34387 1.053524-.0842 2.820601.46431 3.159596.24321.150313.26436.682104.0853 2.144107l-.23815 1.94422-1.3178.08313c-1.51869.09581-1.71531.303006-1.72085 1.813454-.006 1.751135.14988 1.93987 1.60671 1.93987 1.4541 0 1.354-.163666 1.83591 3.001857.48124 3.161194 2.23245 7.44094 4.27255 10.441564 1.23043 1.809765 4.59376 5.205305 6.51636 6.578785 3.27873 2.34227 8.15629 4.25183 12.02431 4.70749l1.52135.17922v1.39207c0 .76564.0794 1.47145.17639 1.56846.24108.24108 2.79121.21605 3.18006-.0312z"/>
</svg>
