<svg xmlns="http://www.w3.org/2000/svg" viewBox="0 0 59.522637 20.039631" height="75.740334" width="224.96745">
  <path d="M48.01766 14.14638c-.9901-.66722-2.16673-2.24481-1.94357-2.60588.0789-.12765 1.31853-.23209 2.75476-.23209 2.90463 0 3.44286-.24818 3.44286-1.5875 0-1.33624-.5404-1.5875-3.41438-1.5875-1.42056 0-2.66263-.0798-2.76016-.17732-.0975-.0975.0216-.48447.26473-.85989 2.32323-3.58734 7.29017-3.03215 8.97656 1.00338.87238 2.08761.0227 4.62344-1.97334 5.88929-1.58936 1.00795-3.98097 1.07839-5.34746.15751zm-41.81853-.15751c-.82443-.52284-1.37585-1.13959-1.77159-1.98149-.67967-1.44594-.71843-2.3414-.16876-3.89932 1.41558-4.01218 6.61924-4.60091 8.94357-1.01186.24313.37542.36226.76237.26473.85989-.0975.0975-1.33959.17732-2.76015.17732-2.93493 0-3.41439.24285-3.41439 1.72938 0 1.23016.52744 1.44562 3.53887 1.44562 1.38343 0 2.57987.10444 2.65876.23209.22315.36107-.95348 1.93866-1.94357 2.60588-1.36649.92088-3.7581.85044-5.34747-.15751zm25.70694 5.59991c.83912-.57834.92814-.69245 3.35437-4.29972 2.72834-4.05643 2.63891-3.98065 4.69753-3.98065h1.70917l.32671 1.12448c.71446 2.459 2.53796 4.55119 4.9862 5.72089 1.23436.58974 1.79651.69224 3.70416.67541 1.9202-.0169 2.47472-.13123 3.79328-.78178 3.19753-1.5776 5.08576-4.64482 5.04449-8.19421-.027-2.32211-.39062-3.61096-1.49296-5.29167-2.17317-3.31337-6.80261-4.72484-10.70637-3.26426-2.15818.80748-4.302 2.98779-5.10604 5.19296l-.59913 1.64318h-1.13354c-2.03845 0-1.97056.14778-1.97056-4.28995 0-3.1985-.0685-3.94248-.35276-3.83338-.19402.0745-2.10454 1.27781-4.2456 2.67414-2.14106 1.39632-4.00086 2.53877-4.13289 2.53877-.13203 0-1.99183-1.14245-4.13289-2.53877-2.14106-1.39633-4.05158-2.59969-4.2456-2.67414-.2843-.1091-.35276.63488-.35276 3.83338 0 4.43773.0679 4.28995-1.97057 4.28995h-1.13353l-.59913-1.64318C16.1188 3.12 12.69647.72508 9.10928.72508 4.43326.72508.90146 3.67109.13585 8.21017c-.71339 4.22944 1.43423 8.34005 5.2361 10.02209 1.96634.86995 5.29453.83366 7.24079-.079 2.37276-1.11262 4.17538-3.17988 4.98811-5.7204l.35973-1.12448h1.62687c.90248 0 1.81273.14726 2.04429.33073.22958.1819 1.38592 1.75948 2.56964 3.50573 3.25814 4.80648 3.35882 4.89479 5.58075 4.89479.95238 0 1.70004-.15872 2.12394-.45088z"/>
</svg>
