<svg xmlns="http://www.w3.org/2000/svg" width="46.430225mm" height="59.542751mm" viewBox="0 0 46.430225 59.542749">
  <path d="M24.87092 18.4061426c0-1.814455.0544-2.013913.6568-2.408627 1.73219-1.134974 2.29436-3.957893 1.12914-5.669955-.99666-1.464393-1.88684-1.962785-3.50573-1.962785-1.6189 0-2.50908.498392-3.50573 1.962785-1.1313 1.662225-.603 4.247376 1.14974 5.626085.55979.44033.63619.715258.63619 2.289212 0 .983831.0794 1.868159.17639 1.965171.097.09702.87092.17639 1.7198.17639h1.5434zm11.39042 9.112525c1.0747-.765252 1.63522-1.953123 1.63522-3.46541 0-1.727586-.70283-2.861468-2.25143-3.632268-1.86686-.929207-3.38507-.64497-4.88278.914146-.99982 1.04081-1.2483 1.16595-2.31511 1.16595h-1.19507v3.175h1.18421c1.0264 0 1.29965.128135 2.05052.961546.47647.528849 1.2235 1.126479 1.66006 1.328068 1.05943.489207 3.11289.266097 4.11438-.447032zm-22.33772.526158c.40084-.152402 1.23937-.747715 1.86339-1.322916.92936-.85666 1.32708-1.045824 2.19883-1.045824h1.06424v-3.175h-1.19507c-1.06681 0-1.31529-.12514-2.31511-1.16595-.90372-.940779-1.36077-1.201772-2.36664-1.351437-3.06889-.456624-5.45241 2.356822-4.55928 5.381668.42281 1.431951.79622 1.869641 2.10173 2.463506 1.20906.54999 2.1608.614061 3.20791.215953zm-1.27742 14.359253l.0784-1.618546-1.77214-1.392672c-3.31607-2.606-5.87288-6.416109-7.16292-10.674067-.6807-2.246723-.6807-8.336611 0-10.583334 1.74342-5.754382 5.52541-10.318427 10.63034-12.828514C17.583 3.7516395 19.43782 3.332118 23.15113 3.332118c3.66239 0 5.42441.3905277 8.69924 1.9280646 7.45213 3.498785 12.30018 12.211963 11.27849 20.270287-.72919 5.751266-3.42016 10.352984-8.5345 14.59452-.92972.771049-.99219.915839-.99219 2.299488 0 .812147.12519 1.554004.27821 1.648572.85219.526682 6.20617-3.910455 8.35932-6.927837 1.42947-2.003214 3.02648-5.427293 3.68333-7.897252.67348-2.532505.67702-9.307502.006-11.641667-.95621-3.326654-2.51745-6.603875-4.0177-8.433659C38.21621 4.665893 34.27935 2.009137 29.29712.6600356c-2.0604-.5579232-3.02061-.6610401-6.14607-.6600283-3.1186.00101-4.09064.1056563-6.14884.6619647C9.23407 2.7616142 2.93928 8.9778656.67741 16.7831096.07499 18.8619536 0 19.5939146 0 23.3958986c0 3.481535.0996 4.63455.53642 6.210903 1.12538 4.061095 3.42209 7.935291 6.39783 10.79218 1.80202 1.730047 4.88467 3.870452 5.3523 3.716319.15464-.05097.31644-.821018.35957-1.711222zm8.9054 9.874658c-.64504-.645041-.64943-.684239-.64943-5.800532v-5.151102l.68498-.814049c.89669-1.065657 2.12049-1.111427 3.1154-.116514l.69753.697539v5.267614c0 5.239996-.003 5.271019-.64943 5.917044-.44838.448381-.94356.649433-1.59952.649433-.65597 0-1.15115-.201052-1.59953-.649433zm5.55597 6.933287c.0568-.181901.17614-.76958.26508-1.305954.0889-.536377.634-1.682483 1.21124-2.546906l1.04953-1.571678v-15.31583l-1.04264-1.39745c-.81291-1.089549-1.08177-1.726753-1.22025-2.892054-.1296-1.090528-.37132-1.709203-.89409-2.288358-1.07587-1.191913-1.54819-2.060382-1.74167-3.202464-.32911-1.942634-.34048-1.956911-1.55937-1.956911h-1.13069l-.33758 1.521354c-.41323 1.862267-.77589 2.593253-1.83656 3.701759-.51056.533588-.82104 1.133237-.82196 1.5875-.003 1.271794-.4969 2.545557-1.45291 3.74381l-.92687 1.161714V53.8684506l1.04306 1.388179c.71561.952381 1.09997 1.780765 1.22434 2.638714.0997.687795.23267 1.339831.29547 1.448972.0628.109141 1.83731.198437 3.94334.198437 2.8318 0 3.85608-.08614 3.93253-.330729z"/>
</svg>
