<svg xmlns="http://www.w3.org/2000/svg" viewBox="0 0 59.563502 52.424015" height="198.138" width="225.1219">
  <path d="M34.4879 36.952686c-1.20731-1.13864-1.41581-2.00434-.79084-3.28364 1.35781-2.7794 4.96742-2.26646 5.30791.75428.16254 1.44207-.18034 2.186614-1.32973 2.887447-1.23552.753348-2.11346.654714-3.18734-.358087zm5.18123 5.671884c.68717-.31404 1.71932-1.03159 2.29366-1.594554 4.25712-4.172836 3.02672-11.50347-2.35244-14.01567-1.97423-.92202-4.85787-.9412-6.61458-.044-2.055 1.04955-3.11401 2.06862-3.98207 3.83191-2.97941 6.052032 1.21815 12.87548 7.68623 12.494562 1.00172-.05899 2.24147-.339688 2.9692-.672258zM3.12311 48.145522c.95774-6.382687 4.8573-11.976136 10.73774-15.401976 2.04397-1.19079 5.42086-2.27635 7.75633-2.49341l1.89184-.17582.7934-1.67925c1.42538-3.01681 4.25857-5.59447 7.41342-6.74479l1.52413-.55573.0763-2.15107.0763-2.15108h5.55625l.13229 2.10684.1323 2.10684 1.63111.63803c2.17007.84884 4.96973 3.01033 6.22445 4.80558.55938.80037 1.35349 2.28865 1.76469 3.30729l.74764 1.85209 2.09209.13229 2.0921.13229.0748 2.97656.0748 2.976566h-2.13363c-1.7945 0-2.15915.0736-2.29415.46302-.40093 1.156571-2.14641 4.736923-2.48705 5.101466-.2082.222811-.61667.687202-.90771 1.031984l-.52916.626877.99609-.156091c1.01741-.159427 4.19305-1.66025 5.27982-2.495259.33179-.254929 1.45584-1.329653 2.49789-2.38828 2.27217-2.30832 4.04078-5.632103 4.75203-8.930593.63851-2.96113.63089-10.63715-.0142-14.2875-.62611-3.54311-1.07271-5.24639-1.40461-5.35702-.15109-.0504-.53725.33324-.85815.85245-2.39368 3.87306-6.53 2.67889-9.52318-2.74936-1.54065-2.79403-1.78959-3.19184-2.8901-4.6182995-.60695-.78672-1.54577-1.73543-2.08625-2.10823-2.31343-1.59571-5.92005-2.7906-8.48549-2.81129-.99653-.008-1.12671.0535-.96038.45373.70999 1.70861.90799 2.84175.65848 3.76837-.68152 2.5309795-3.54777 3.2264295-8.73177 2.1186095-5.76961-1.2329695-10.30108-.26865-15.89369 3.38225-2.84438 1.85683-7.87844 6.27131-7.5388 6.61095.0732.0732.76172-.13738 1.53008-.46792 4.12743-1.77558 8.10111-.45236 9.73063 3.24024.68079 1.54273.53163 2.72192-.56482 4.46517-1.04458 1.66079-1.34196 1.96884-3.93215 4.07328-2.65809 2.15962-3.38115 2.90407-4.87777 5.02207-1.82491 2.58259-2.8665 5.745658-3.18467 9.671101-.22337 2.755942.14729 5.195943 1.20658 7.942794.94847 2.459461 1.4059 2.784846 1.49409 1.062808.0342-.667811.19618-2.107171.35995-3.198577z"/>
</svg>
