<svg xmlns="http://www.w3.org/2000/svg" viewBox="0 0 49.412523 59.249423" height="223.93481" width="186.756">
  <path d="M26.69582 50.64742c4.7229-14.23316 4.91321-15.00809 4.12949-16.81459-.57486-1.32506-5.76866-8.03595-6.21933-8.03595-.48547 0-5.42672 6.46413-6.15142 8.04728-.67823 1.48165-.55203 2.61929.7216 6.5048.52471 1.60073 1.8503 5.64584 2.94575 8.98914 1.95638 5.97079 2.41027 7.17197 2.62786 6.95438.06-.06.93572-2.60028 1.94605-5.64506zm3.52187 7.49477c.79762-.61846 1.79421-1.38567 2.21464-1.70491 6.70923-5.0943 9.11526-7.05347 10.44667-8.50647 4.93651-5.38733 7.25633-12.72616 6.33543-20.04237-1.24395-9.88281-8.19527-18.00509-17.73811-20.72614-3.28202-.93584-3.80382-1.12623-4.57805-1.6704-1.14075-.80178-2.00867-2.38924-2.20101-4.02573C24.60246.65978 24.4486 0 24.3553 0s-1.78044 1.22039-3.74919 2.71198c-1.96876 1.49159-5.29907 4.0144-7.4007 5.60625-5.99844 4.54342-8.03317 6.70117-10.36939 10.99636C.76658 23.11928-.00083 26.41264 0 31.48542c.00047 2.95691.11677 4.26107.50726 5.68854.7886 2.88278.83593 3.01426 1.7932 4.98123 2.93668 6.03424 8.73131 10.93552 15.11071 12.78113.82395.23838 1.64692.48952 1.82882.5581.71693.27031.73544.33618-3.80944-13.55711-1.62258-4.9601-1.72447-5.4149-1.63009-7.27604.0589-1.16196.2931-2.3795.5647-2.93597.25521-.52292 2.26049-3.32089 4.45616-6.21771 2.19568-2.89683 4.357-5.77298 4.80295-6.39144.44595-.61847.89286-1.12448.99314-1.12448.33282 0 9.51136 12.40383 10.21462 13.80397.52737 1.04999.69409 1.78652.70451 3.11233.0141 1.79642-.30491 2.87333-5.67637 19.16202-.85701 2.59886-1.5582 4.83128-1.5582 4.96094 0 .44947.47263.2302 1.91572-.88874z"/>
</svg>
