<svg xmlns="http://www.w3.org/2000/svg" viewBox="0 0 59.640007 53.344615" height="201.61743" width="225.41106">
  <path d="M30.19865 41.424735c.0721-.32742.30843-1.48828.52526-2.57968.21683-1.09141.71054-3.47266 1.09713-5.29167.99174-4.66642 1.14253-5.39888 1.15558-5.61319.024-.39421 1.70991-2.10348 2.45453-2.48854.46128-.23854 1.30282-.37387 2.07122-.33309.71184.0378 1.36186.001 1.44449-.0815.15413-.15413-.2929-1.18079-2.91615-6.69718-.83041-1.74625-1.86898-3.94891-2.30794-4.89479-2.72883-5.88023-3.64227-7.67292-3.90963-7.67292-.26736 0-1.1808 1.79269-3.90963 7.67292-.43896.94588-1.47753 3.14854-2.30794 4.89479-2.62325 5.51639-3.07028 6.54305-2.91615 6.69718.0826.0826.73265.11932 1.44449.0815.7684-.0408 1.60994.0945 2.07122.33309.74462.38506 2.43053 2.09433 2.45453 2.48854.0131.21431.16384.94677 1.15558 5.61319.38659 1.81901.8803 4.20026 1.09713 5.29167.61031 3.07192.63988 3.175.91077 3.175.13998 0 .31346-.26789.38551-.59532zm18.77248 2.03703c.77038-.77038 2.37259-3.91775 3.08235-6.0549 3.23645-9.74536.0394-19.88229-8.29384-26.2977-2.59269-1.99599-9.01897-4.70924-9.46075-3.99442-.0997.16135.38128 1.36561 1.06891 2.67613 1.20754 2.3014 1.30796 2.41184 2.94101 3.23429 4.50976 2.27124 8.00453 6.30238 9.59999 11.07338 1.38473 4.14081 1.20197 8.80003-.51615 13.15901-.53926 1.36815-2.47183 4.47175-3.42375 5.49835-.87196.94037-.52762 1.1072 2.29565 1.11218 1.72596.003 2.39812-.0979 2.70658-.40632zm-33.07798.1933c.0738-.11939-.40206-.86353-1.05744-1.65365-1.39445-1.68112-3.08721-5.02129-3.65473-7.21154-1.40958-5.44012-.21574-11.65951 3.08148-16.05316 1.80966-2.41144 5.2954-5.20041 7.76835-6.21554.91705-.37643 1.15648-.68216 2.09379-2.67347.58208-1.23664 1.10328-2.37768 1.15823-2.53565.14054-.40407-2.10481-.0391-3.7885.6158-3.58917 1.39608-6.18095 3.11765-8.7643 5.82164-2.74422 2.87236-4.17679 5.24346-5.4325 8.99149-2.01365 6.01032-1.37548 12.8131 1.74018 18.55011 1.41817 2.61135 1.36861 2.58104 4.22077 2.58104 1.37528 0 2.56088-.0977 2.63467-.21707zm-10.66623-1.0397c-1.85427-3.73811-2.43189-5.69456-2.96555-10.04457-.37135-3.02705-.0452-6.95909.82706-9.97073 2.8448-9.82225 10.19668-17.01508 20.11013-19.67505 2.18298-.58574 3.05287-.67444 6.61458-.67444 3.55582 0 4.43521.0894 6.61458.67215 4.94088 1.32123 9.42721 3.87942 12.94065 7.379 5.80375 5.78085 8.94583 14.53103 7.99654 22.26907-.52913 4.31313-1.34841 7.10067-2.99107 10.17686l-.74175 1.38906h2.57659l.9443-2.19811c4.76167-11.08408 2.56924-23.85714-5.57723-32.49281-3.80473-4.03322-8.99483-7.21525-13.82511-8.47612-3.87887-1.01253-8.68065-1.25144-12.56771-.62531-3.02751.48768-3.76599.68429-6.31738 1.68196-9.173 3.5869-16.16252 11.86401-18.24426 21.60519-1.28674 6.02103-.5484 13.0069 1.96998 18.63914l.83439 1.86606h2.55592zm50.19252 7.44387l.074-3.20562-24.97509-.19673c-13.7363-.1082-25.34843-.11473-25.80473-.0145l-.82965.18222v3.10988c0 1.71044.08 3.18985.1777 3.28758.0977.0977 11.67656.14734 25.73073.11024l25.55303-.0675z"/>
</svg>
