<svg xmlns="http://www.w3.org/2000/svg" viewBox="0 0 59.457068 49.735315" height="187.97598" width="224.71964">
  <path d="M29.44161 35.001564c-1.22932-3.88176-3.59757-6.81738-6.78702-8.413-1.0228-.51168-2.052-.93216-2.28711-.93439-.23511-.002-.59055-.10735-.78986-.23361-.26282-.1665-.0811-.31859.66146-.55356 3.62048-1.1457 6.80762-3.82223 8.26616-6.94186.45511-.97342.82747-2.01294.82747-2.31005 0-.30379.17369-.5402.39688-.5402s.39687.23641.39687.5402c0 .29711.37237 1.33663.82748 2.31005 1.45854 3.11963 4.64568 5.79616 8.26616 6.94186.74255.23497.92428.38706.66146.55356-.19931.12626-.55475.23138-.78986.23361-1.09622.0104-4.17577 1.9154-5.75511 3.56012-1.53514 1.59869-3.21013 4.49491-3.21013 5.55064 0 .5976-.51426.77529-.68485.23663zm14.08836 1.17385c12.9542-12.98861 13.56355-13.6435 14.46345-15.54427 3.43293-7.25102.61862-15.86549-6.26266-19.16967-2.41332-1.15881-3.73012-1.45334-6.5336-1.46136-4.75894-.0136-7.24863 1.18599-11.91596 5.74152-1.83015 1.78631-3.42838 3.24784-3.55161 3.24784-.12323 0-1.72146-1.46153-3.55161-3.24784-4.66733-4.55553-7.15702-5.75514-11.91596-5.74152-2.80756.008-4.12004.30243-6.54983 1.46916-6.88475 3.3059-9.67805 11.87951-6.24297 19.16187.89779 1.90333 1.48837 2.53819 14.45999 15.54427 7.43819 7.45794 13.64836 13.5599 13.80038 13.5599.15202 0 6.36219-6.10196 13.80038-13.5599z"/>
</svg>
