<svg xmlns="http://www.w3.org/2000/svg" width="60.522198mm" height="60.37722mm" viewBox="0 0 60.522197 60.377218">
  <path d="M33.56357 17.68819532l3.30729-3.009137.0754 2.618542c.0415 1.4402.16719 2.618543.27938 2.618543.11219 0 1.62607-1.166228 3.36418-2.591619l3.16021-2.591618.32049-2.237027C45.08351 5.42525142 45.74544.2598174 45.65067.1650487c-.0596-.059594-1.64271.90570071-3.51804 2.14509822-1.87533 1.2393974-3.65482 2.2549603-3.95443 2.2568066-1.15589.00712-1.56374-.6287273-1.70421-2.6568738L36.3417 0l-2.64584 2.41773912c-1.45521 1.3297564-2.92289 2.4923485-3.26153 2.5835377-.84785.2283139-1.40526-.1326616-4.1373-2.6793012C24.99257 1.10603791 23.8335.1679059 23.72132.2372381c-.11219.069332-.18453.83144461-.16077 1.69358382.0485 1.7581248-.46411 2.6394883-1.53502 2.6394883-.33446 0-2.10906-1.0247508-3.94357-2.2772239C16.24745 1.04061311 14.7147.0583475 14.67586.1102738c-.0388.051926.36109 3.41228222.88876 7.46745752.82597 6.347656 1.03117 7.425382 1.47553 7.749369.28387.206978 1.62961 1.29442 2.99054 2.416538 1.36093 1.122117 2.58132 2.079901 2.71198 2.128407.13066.04851.23757-1.05282.23757-2.447396 0-1.497896.10726-2.53559.26208-2.53559.14415 0 1.70373 1.309688 3.46574 2.910417 1.762 1.600729 3.28117 2.907591 3.37593 2.904136.0948-.0035 1.66057-1.360393 3.47958-3.015417zm-.43514 20.973631l2.94868-2.685563.0764 2.288688c.042 1.258782.1519 2.288691.24412 2.288691.0922 0 1.36751-.973082 2.83397-2.162405 1.46646-1.189323 2.69088-2.176327 2.72093-2.193348.10013-.05671 1.32092-14.560256 1.23443-14.665531-.0468-.05697-1.29218.627642-2.76749 1.521354-1.47532.893712-2.9666 1.624931-3.31396 1.624931-.97886 0-1.68991-.890614-1.68991-2.116667 0-1.135666-.24767-1.320795-.8275-.618524-.99405 1.203975-4.0067 3.528941-4.57273 3.528941-.40587 0-1.39819-.700315-2.83748-2.002513l-2.21333-2.002514-.14881 1.06695c-.17704 1.269278-.88788 2.144327-1.74194 2.144327-.33996 0-1.78003-.714045-3.20014-1.586765-1.42011-.87272-2.62463-1.459277-2.67671-1.303456-.13577.406283 1.0197 13.782407 1.23658 14.314892.0996.244453 1.31212 1.34503 2.69456 2.445726l2.51355 2.001266.0764-2.247292c.042-1.236009.14746-2.247288.23426-2.247288.13531 0 1.0392.789998 5.37338 4.696354.36328.327421.70404.595312.75724.595312.0532 0 1.42364-1.208503 3.04541-2.685566zm13.40511 14.354519c1.3514-4.606383 1.60381-5.752616 1.35467-6.151562-.24812-.397304-.22926-.490308.0995-.490308.51095 0 .55752-.127106 2.5258-6.89343 1.93854-6.664073 1.96281-7.493775.31064-10.621491-.0537-.101589.58236-.220652 1.41338-.264583l1.51095-.07987 1.41694-4.87571c.80369-2.765486 1.41582-5.399275 1.41436-6.085417-.003-1.358179-.84949-3.39515-1.95541-4.704921l-.71719-.849381 2.32978-.07666 2.32978-.07666.43406-1.3229158c.23873-.7276041.67871-2.1955489.97773-3.2620994l.54367-1.9391825-1.5069-.6698673c-1.82443-.8110214-8.52287-3.07607141-8.66792-2.9310213-.11333.1133269-.41429 2.975235-2.77595 26.3969623-.87305 8.658489-1.94119 19.247836-2.37363 23.531882-.43245 4.284046-.77873 7.855921-.7695 7.9375.0379.335018.52761-1.193604 2.10528-6.571263zm-31.21915-1.371703c-.72581-7.191473-3.7344-36.963578-4.66271-46.1408755-.22039-2.1787341-.42894-3.98956971-.46345-4.02407871C10.01562 1.30708181.55744 4.56537122.00596 4.98741972c-.1175.089926 1.53782 5.9395766 1.84734 6.5282026.20292.385909.62038.463021 2.50664.463021h2.26317l-.72603.859895c-1.11415 1.319563-1.96135 3.353376-1.96426 4.715436-.001.686142.61067 3.319931 1.41436 6.085417l1.41694 4.87571 1.51095.07987c.83102.04393 1.46704.162994 1.41338.264583-1.65001 3.123631-1.62631 3.95074.30575 10.669365 1.88564 6.557197 1.99228 6.845556 2.53157 6.845556.32849 0 .34682.09282.0973.492432-.25117.40218.0151 1.587863 1.45296 6.469531.96827 3.287403 1.7605 6.062215 1.7605 6.166249 0 .104032.0593.129866.13174.05741.0725-.07246-.22177-3.634412-.65384-7.915452zm15.4223 8.448354c.31786-.167415 1.2923-.962932 2.16542-1.767813l1.5875-1.463421.15307 1.128847c.26365 1.944336 1.42081 2.120255 3.84202.584079l1.61384-1.023927.16305-1.685539c.5147-5.320765 1.03792-12.690922.91003-12.818811-.0819-.08186-1.12221.454875-2.3119 1.192739-1.18968.737868-2.43284 1.341575-2.76256 1.341575-.81278 0-1.41593-.734581-1.52072-1.852083l-.0868-.926042-1.45521 1.344092c-1.66532 1.538163-2.62161 2.227783-3.08922 2.227783-.17911 0-1.19442-.771776-2.25623-1.715061l-1.93059-1.71506-.20374.966737c-.44378 2.10571-1.33177 2.175549-4.23397.332994-1.15793-.73515-2.15547-1.286497-2.21675-1.225214-.0613.06128.15978 3.362888.49125 7.336898l.60267 7.225472 1.56452 1.0112c.86049.55616 1.8965 1.011201 2.30225 1.011201.88326 0 1.56148-.841852 1.56148-1.938203 0-.759444.006-.756581 1.78594.813395 1.51029 1.332352 2.10928 1.759162 2.66323 1.897669.0459.01148.3436-.116089.66145-.283507z"/>
</svg>
