<svg xmlns="http://www.w3.org/2000/svg" viewBox="0 0 59.127986 50.021662" height="189.05824" width="223.47586">
  <path d="M29.97233 20.408362c.43318-1.38795 1.65413-3.17307 2.6162-3.82509.40842-.27679 1.32926-.74526 2.04632-1.04103.71705-.29577 1.34327-.65639 1.3916-.80138.0483-.14499-.44881-.42208-1.10476-.61576-2.20352-.65062-4.22623-2.7105-4.91323-5.00349-.38074-1.2708-.95102-1.45202-1.20777-.38379-.54187 2.25455-2.87728 4.76501-4.98059 5.3539-.66254.1855-1.20461.44236-1.20461.5708 0 .12845.68461.53588 1.52135.9054 2.30335 1.01722 4.18513 3.11592 4.6701 5.20844.24517 1.05788.77233.89141 1.16539-.368zm4.35327 17.09438c2.65449-2.69682 5.06447-5.34596 5.35551-5.88698 1.64221-3.0527-.67022-7.11533-4.21744-7.40949-1.92865-.15994-3.06997.28025-4.78088 1.84392l-1.45416 1.32903-.72688-.76599c-.39979-.4213-1.19387-1.11815-1.76462-1.54857-.92738-.69934-1.2369-.78139-2.91042-.77144-2.30035.0137-3.5375.67229-4.56897 2.43236-.85637 1.46127-.95387 3.66494-.22552 5.09714.45981.90415 9.84046 10.58333 10.25692 10.58333.11557 0 2.38198-2.20649 5.03646-4.90331zm9.58885 11.91502c3.62973-.99439 7.01146-2.52305 7.01146-3.16944 0-.20953-.53505-.32238-1.57485-.33218-2.13951-.0202-3.55786-.71405-3.65945-1.7903-.0692-.73344.0927-.89842 2.13086-2.17145 3.47925-2.1731 7.93497-6.9637 9.55592-10.27411 1.40584-2.87111 1.7496-4.85392 1.7496-10.09183 0-4.47496-.30797-7.49282-.76463-7.49282-.10539 0-.46786 1.10133-.80551 2.4474-.86361 3.4429-1.68922 4.96094-2.6981 4.96094-.71628 0-1.22393-.99417-1.41858-2.77813-.8005-7.33663-3.80121-15.18129-6.96631-18.2118-.95575-.91511-1.22888-.59381-.72039.84741 1.29463 3.66936 1.85273 7.57201 1.82105 12.73418-.0468 7.62455-1.25214 12.79738-4.62397 19.84375-3.05601 6.38641-6.48293 10.8893-11.17776 14.68731-1.24794 1.00956-1.27086 1.05253-.66145 1.24025 1.19717.36878 11.08239.0219 12.80211-.44918zm-16.03133.43014c.609-.17036.5736-.23017-.79375-1.34126-6.75642-5.49013-12.69373-15.54337-14.61923-24.75371-.21296-1.01865-.53522-2.56646-.71614-3.43959-.19118-.92264-.32613-3.52667-.32224-6.21771.007-4.80154.29623-7.10205 1.41398-11.24479.70044-2.59603.70344-2.61799.37778-2.76467-.38361-.17278-2.60187 2.68315-3.66487 4.71839-1.79383 3.43448-3.17949 8.21352-3.89441 13.43156-.30954 2.25931-.78318 3.26785-1.53468 3.26785-1.01919 0-1.86217-1.71854-2.84577-5.80155l-.4734-1.96508-.40179.90675c-.31799.71762-.40317 2.09327-.40839 6.59529-.007 6.10605.15525 7.15284 1.58903 10.24684 1.57226 3.39285 6.44752 8.65124 9.71192 10.47514 2.17803 1.21693 2.58154 1.81825 1.86455 2.77859-.59796.8009-1.53925 1.11413-3.45458 1.14958-.76725.0142-1.4561.12469-1.53079.24554-.20025.32401 1.62153 1.43296 3.58723 2.18365 1.66335.63521 4.58462 1.3785 6.21771 1.58203 1.39605.174 9.23662.13213 9.89784-.0529z"/>
</svg>
