<svg xmlns="http://www.w3.org/2000/svg" viewBox="0 0 58.92311 55.173985" height="208.53159" width="222.70152">
  <path d="M30.75023 42.00263c.56159-1.20054 1.5558-3.3139 2.20936-4.69635.65356-1.38245 1.69406-3.58511 2.31221-4.89479.61815-1.30969 1.71831-3.63141 2.44481-5.15938 1.76235-3.70659 3.11052-6.62399 3.11052-6.73106 0-.0479-.74955-.027-1.66567.0465-1.43692.11535-1.85655.037-3.05546-.57055-1.86744-.9463-2.7243-2.32956-3.31949-5.35874-.44933-2.28684-.6954-3.44593-1.2119-5.70857-.14118-.61847-.56222-2.61276-.93565-4.43177-.37342-1.81901-.73643-3.57519-.80668-3.90261C29.76208.26789 29.59002 0 29.45005 0c-.13998 0-.31198.26789-.38223.59531-.0703.32742-.43326 2.0836-.80669 3.90261-.37342 1.81901-.79446 3.8133-.93564 4.43177-.5165 2.26264-.76257 3.42173-1.2119 5.70857-.59519 3.02918-1.45205 4.41244-3.31949 5.35874-1.19891.60754-1.61855.6859-3.05546.57055-.91612-.0735-1.66567-.09-1.66567-.0367 0 .12094 2.06751 4.53973 5.62072 12.01287.7265 1.52797 1.70751 3.61156 2.18003 4.63021 2.47851 5.34313 3.33037 7.01146 3.58009 7.01146.15145 0 .73484-.98227 1.29642-2.18282zm5.71128 8.1563c1.60073-1.73043 3.22041-3.47864 3.59929-3.88492l.68888-.7387 1.42779 1.75219c2.48385 3.04821 2.83116 3.39784 3.09486 3.11565.13599-.14552 1.5295-2.76489 3.0967-5.82083 2.93974-5.73233 5.39334-10.48134 8.44424-16.34409 2.05826-3.95524 2.38693-4.72647 1.92802-4.52417-.30551.13469-1.05109 1.0243-6.38982 7.62422-1.30146 1.60891-2.49208 3.05828-2.64583 3.22082-.15375.16254-1.05346 1.25604-1.99934 2.43-.94589 1.17395-1.83886 2.13339-1.98438 2.13207-.14552-.001-1.13021-1.06505-2.1882-2.36385-1.05799-1.2988-2.0406-2.36146-2.18358-2.36146-.23522 0-.93726 1.37959-3.56797 7.01146-.47581 1.01865-1.60641 3.3999-2.51243 5.29167-.90602 1.89177-2.00003 4.21349-2.43113 5.15937-.4311.94589-.94048 2.04006-1.13195 2.43151-.19146.39144-.28208.77775-.20136.85847.16037.16036.62637-.30877 4.95621-4.98941zm-9.38569 3.88165c-.26045-.54538-.74205-1.58691-1.07023-2.31451-.7146-1.58436-2.25666-4.85297-4.49366-9.525-.9058-1.89177-2.10858-4.42185-2.67284-5.6224-.56427-1.20054-1.14365-2.18281-1.28752-2.18281-.14387 0-1.1272 1.06266-2.18519 2.36146-1.058 1.2988-2.04269 2.36406-2.18821 2.36725-.14552.003-.96178-.87194-1.81392-1.94473-.85214-1.0728-1.74689-2.16783-1.98834-2.4334-.24144-.26558-.91345-1.07543-1.49336-1.79966-.57991-.72423-1.31351-1.6172-1.63024-1.98437-.31672-.36718-.97156-1.16811-1.4552-1.77986C2.27909 25.99756.44257 23.83506.14735 23.70746c-.44325-.19157.0924 1.07007 1.89434 4.46205.77559 1.45996 2.87783 5.51198 4.67164 9.00448 6.15743 11.98832 6.80784 13.2112 7.07376 13.29984.14659.0489 1.18534-1.03933 2.30833-2.41821l2.0418-2.50705.56319.58375c.30975.32106 1.98328 2.12772 3.71896 4.01479 4.10091 4.4586 4.74622 5.10786 4.95586 4.98616.0958-.0556-.039-.54732-.29941-1.09269z"/>
</svg>
