<svg xmlns="http://www.w3.org/2000/svg" width="55.453411mm" height="59.002087mm" viewBox="0 0 55.45341 59.002085">
  <path d="M22.82893 34.3681025l-1.12305-1.218361 1.67702-1.692056 1.67702-1.692058-1.67702-1.692058-1.67702-1.692055 1.12305-1.218361c.61767-.670097 1.26077-1.218359 1.42911-1.218359.16834 0 .95278.654844 1.7432 1.455208.79043.800365 1.56433 1.455209 1.7198 1.455209.15546 0 .92937-.654844 1.71979-1.455209.79042-.800364 1.57486-1.455208 1.7432-1.455208.16834 0 .81144.548262 1.42912 1.218359l1.12304 1.218361-1.67702 1.692055-1.67701 1.692058 1.67701 1.692058 1.67702 1.692056-1.12304 1.218361c-.61768.670097-1.26078 1.218358-1.42912 1.218358-.16834 0-.95278-.654843-1.7432-1.455208-.79042-.800364-1.56433-1.455208-1.71979-1.455208-.15547 0-.92937.654844-1.7198 1.455208-.79042.800365-1.57486 1.455208-1.7432 1.455208-.16834 0-.81144-.548261-1.42911-1.218358zm6.46561 4.902721c3.2949-.609095 6.10627-2.718639 7.37839-5.536446.83594-1.851662.91761-5.26026.17333-7.234679-.87082-2.310117-2.45817-4.098933-4.61501-5.200737-1.70661-.871808-1.9615-.925417-4.35212-.915392-3.05576.01281-4.40603.538249-6.51929 2.53688-1.98132 1.873851-2.87305 3.948488-2.88537 6.712887-.0241 5.410559 3.10855 8.804944 9.13183 9.894762.0824.01492.84212-.100861 1.68824-.257275zm-2.88697 3.932044c-3.18757-.410467-5.58186-1.578073-7.92914-3.866742-5.55023-5.411645-5.32774-14.271249.49098-19.5508 2.26443-2.054606 4.84245-3.162554 7.95663-3.419502 8.80688-.7266464 15.8535 7.361746 14.16594 16.26023-.81766 4.311468-4.73087 8.684377-9.00532 10.063186-1.56437.504619-4.02255.726943-5.67909.513628zM4.6112 55.1081595c.7777-.395409 2.62424-1.244812 4.10342-1.887559 1.47919-.642747 3.12413-1.5002 3.65545-1.905452 1.10319-.841444 1.98951-2.395455 1.98951-3.488264 0-.570317.42907-1.171022 1.82801-2.559243l1.82801-1.813999.80501.57322c3.19259 2.273326 8.82766 3.267929 12.83099 2.264703 2.14492-.537514 2.91069-.846952 4.76322-1.924756l1.55003-.901817 1.55883 1.542556c1.36094 1.346747 1.55882 1.670891 1.55882 2.553565 0 1.338521.79884 2.845869 1.98951 3.754035.53131.405252 2.17626 1.264931 3.65544 1.910403 4.69708 2.049661 5.36189 2.438357 7.05582 4.125349l1.65798 1.651185-.17631-1.190625c-.2606-1.759911-1.81377-4.83825-3.17583-6.294393-.65743-.702847-1.79874-1.560525-2.53625-1.905957-1.52287-.713277-1.91623-1.513229-1.29284-2.629234.63016-1.12813 1.93223-1.055327 3.8199.21358.86081.578644 1.60981 1.007385 1.66443.952757.21531-.21531-.5522-1.917965-1.46417-3.24815-.56612-.82573-1.4609-1.695775-2.17685-2.116666-1.09573-.64416-1.46973-.714701-3.792-.715217l-2.57636-.000529-1.08051-1.080505-1.0805-1.080503.92419-1.697051c2.71678-4.98871 2.98694-10.574093.74208-15.341872-.4405-.935553-1.015-2.028909-1.27667-2.429679l-.47576-.72867 1.34439-1.344391 1.34439-1.34439 2.35556-.04361c2.03741-.03772 2.51975-.140128 3.57119-.758251.71595-.4208914 1.61073-1.2909374 2.17685-2.1166654.91197-1.330185 1.67948-3.032841 1.46417-3.248151-.0546-.05463-.80362.374113-1.66443.952757-1.88767 1.268908-3.18974 1.341709-3.8199.213579-.62339-1.116003-.23003-1.915955 1.29284-2.629234.73751-.345429 1.87882-1.20311 2.53625-1.905956 1.35678-1.45054145 2.91082-4.5247105 3.18191-6.2944345L55.45341 0l-1.83174 1.7197916c-1.922 1.80453-2.52993 2.162597-6.89422 4.06067005-1.47918.64331-3.12413 1.50122345-3.65544 1.90647545-1.26932.968151-1.98951 2.422882-1.98951 4.018616 0 1.208503-.0837 1.358442-1.59178 2.850761-1.38657 1.3720994-1.65092 1.5319894-2.05052 1.240249-1.22669-.895571-4.40153-2.17596-6.39916-2.580731-3.82816-.775686-7.89971-.107294-11.40064 1.871547-.89512.505952-1.71624.9199114-1.82472.9199114-.10847 0-.93047-.7636004-1.82666-1.6968914-1.45879-1.519176-1.62944-1.811231-1.62944-2.788665 0-1.403564-.77384-2.907562-1.96249-3.814188-.94995-.7245605-4.54221-2.47200445-6.24098-3.0359065-1.30709-.433886-3.07106-1.65639-4.73101-3.27878L0 0l.17672 1.1906246c.26131 1.760574 1.81455 4.83863605 3.17624 6.2943925.65743.702846 1.79874 1.560526 2.53625 1.905956 1.52288.713279 1.91623 1.51323 1.29284 2.629233-.63016 1.128131-1.93223 1.05533-3.8199-.213578-.86081-.578645-1.6098-1.007385-1.66443-.952757-.21531.21531.5522 1.917965 1.46417 3.24815.56612.825729 1.46091 1.695775 2.17685 2.1166664 1.08371.63709 1.49114.71668 3.75434.733383l2.53872.01873 1.2316 1.285367c.67738.706951 1.23159 1.402432 1.23159 1.545513 0 .143084-.30356.778137-.67457 1.411232-3.2064 5.471303-3.02278 12.930248.43934 17.846664l.48943.695002-1.35995 1.359945c-1.0969 1.096902-1.46693 1.320708-1.91303 1.157082-.3042-.111578-1.44606-.202407-2.53747-.201846-2.50949.0013-3.96119.765448-5.37685 2.83029-.91197 1.330185-1.67948 3.03284-1.46417 3.24815.0546.05463.80362-.374113 1.66443-.952757 1.88767-1.268907 3.18974-1.34171 3.8199-.21358.62339 1.116005.23004 1.915957-1.29284 2.629234-.73751.345432-1.87882 1.20311-2.53625 1.905957-1.36205 1.456151-2.91522 4.53449-3.17583 6.294401l-.1763 1.190625 1.59819-1.5875c.879-.873125 2.23448-1.911017 3.01218-2.306426z"/>
</svg>
