<svg xmlns="http://www.w3.org/2000/svg" viewBox="0 0 60.219252 53.991785" height="204.06343" width="227.60033">
  <path d="M30.70936 2.4474C31.77511 1.31961 32.59302.30758 32.52693.19844 32.46083.0893 28.55375 0 23.8445 0h-8.56227l-1.34145 1.78594c-2.17581 2.89677-2.63521 2.71198 6.74216 2.71198h8.08868zm-5.58696 8.17575c.61682-1.17733.92317-2.04016.77645-2.18688-.13899-.139-3.56337-.21239-8.03024-.17211l-7.7879.0702-.98919 1.94834c-.54406 1.07159-.9229 2.05561-.84187 2.18672.0837.13537 3.54107.20811 8.00065.16832l7.85332-.07zm-5.17555 8.53771c3.11201-2.84027 3.28941-2.75669-5.85155-2.75669H6.33593l-2.1625 2.11936c-1.18938 1.16565-2.16251 2.17768-2.16251 2.24896 0 .0713 3.60632.12959 8.01406.12959h8.01406zm-1.83565 9.9732c.28534-.18083.18715-.54075-.48609-1.78189-1.5781-2.90923-.99428-2.74592-9.81642-2.74592-6.11339 0-7.69367.0709-7.80074.34992-.14644.38161 1.77063 3.83741 2.32325 4.18802.45539.28892 15.32315.27937 15.78-.0101zm4.93596 8.169156c.091-.147187-.35713-1.129453-.99578-2.182812l-1.16118-1.915197-8.11673-.06997c-4.80467-.04142-8.11672.02918-8.11672.173019 0 .266134 1.73135 3.400496 2.17186 3.931846.35087.423235 15.95845.48397 16.21855.06311zm4.74497 8.230455c.13477-.218062-1.37097-3.140369-2.0239-3.927943-.33775-.407393-15.95767-.485252-16.20764-.08079-.13388.21663.30796 1.07156 1.88774 3.652665l.36437.595313h7.91579c4.43288 0 7.98084-.105267 8.06364-.239244zM38.788 51.579252c0-1.522453-.15089-2.16257-.88506-3.754697-1.03759-2.250117-1.255-2.927326-2.01774-6.284973-.97713-4.301466-2.4045-10.406633-2.66709-11.407782-.51534-1.96477-.17641-5.21359.77447-7.42358.70604-1.64095 3.02222-4.69498 3.56929-4.70632.27151-.006 1.06995.19445 1.77433.44462 1.13135.40182 1.42855.41298 2.54905.0957 2.52617-.71527 2.46727-.73278 3.87495 1.15156 2.64613 3.54211 3.32522 6.90954 2.32458 11.527023-2.04937 9.45685-3.31437 14.271912-4.29361 16.343139-.89247 1.887696-1.03442 2.439241-1.03442 4.019283 0 1.007239.10889 1.898647.24199 1.980903.13309.08226.94659-1.071575 1.80778-2.564071 5.72725-9.925727 7.9492-13.764392 9.99399-17.265713 4.18388-7.164134 5.41874-9.384444 5.41874-9.743064 0-.19453-.54191-.74286-1.20425-1.21852-1.62385-1.16616-3.69505-3.26679-4.54331-4.60785-.38244-.60463-1.37565-2.60593-2.20714-4.44734-1.59242-3.5266-3.28312-6.3455-5.105-8.51155-1.27437-1.51511-3.94732-3.79428-5.42156-4.62285l-1.026-.57665-1.55731 1.01761c-3.41209 2.22959-7.13092 6.79615-9.07744 11.14667-2.14574 4.79582-3.25654 6.64988-5.05541 8.43808-.97723.97143-2.20787 2.05988-2.73475 2.41877-.52688.35889-.95878.80338-.95977.98776-.001.18438.51558 1.19641 1.14794 2.24896.63236 1.05255 1.85275 3.14058 2.71198 4.640063.85923 1.499485 1.68129 2.930759 1.82681 3.180608.14552.249849 2.7552 4.762389 5.79927 10.027867 3.04408 5.26548 5.63369 9.512413 5.75469 9.437631.121-.07478.22-.961874.22-1.971317zm-6.22856 2.148718c.084-.135866-.3608-1.118132-.98839-2.182813l-1.14107-1.935784-7.90843-.07016c-4.34965-.03859-8.01194.03334-8.13844.159837-.19639.196392 1.15575 2.881995 1.98632 3.945218.31627.404849 15.94161.485629 16.19001.0837z"/>
</svg>
