<svg xmlns="http://www.w3.org/2000/svg" viewBox="0 0 60.060419 60.287727" height="227.85912" width="227.00002">
  <path d="M33.01572 2.84427L33.09082 0H26.9875v2.73402c0 1.50372.0832 2.817201.1848 2.918841.10165.10164 1.4411.15125 2.97657.11024l2.79176-.0746zm27.0447 26.780111v-2.91937l-2.84427.0751-2.84427.0751-.0751 2.84427-.0751 2.84427h5.83874zm-54.29678.0751l-.0751-2.84427-2.84427-.0751L0 26.705011v5.83874h5.83873zm23.06304 4.34808c-2.09358-.69833-3.19936-2.13831-3.2178-4.19032-.0208-2.31773 1.08074-3.84436 3.241-4.49159 1.87095-.56055 4.07895.34951 5.10327 2.10338.63654 1.08991.67413 3.49146.0691 4.41486-1.27567 1.94691-3.30801 2.79328-5.19556 2.16367zm4.52575 12.37793c7.56884-5.68485 8.65564-6.70256 10.03558-9.39754 1.24126-2.42413 1.68498-4.33656 1.68498-7.26221 0-4.20972-1.19768-7.3618-3.95491-10.40864-1.88898-2.08739-3.56958-3.11839-6.93971-4.25732-2.40394-.8124-2.89375-1.07739-3.41142-1.84555-.33245-.49332-.60445-1.16997-.60445-1.50367 0-1.08566-.50418-.96459-2.58396.62045-1.12544.85772-3.27779 2.49795-4.783 3.64496-4.29099 3.26982-5.7726 5.17189-7.10253 9.11809-.84127 2.49624-.9547 6.65933-.24716 9.07149.62232 2.12164 2.25478 4.9266 3.73263 6.41357 1.73874 1.74946 4.97538 3.51093 7.54443 4.10589 1.60245.37111 3.175 1.65264 3.175 2.58743 0 .83192.28991 1.38566.62304 1.19006.16665-.0978 1.44082-1.03251 2.83148-2.07701zm-.4118 10.98921v-2.77812h-5.82084l-.0767 2.49369c-.0422 1.37153-.0146 2.6555.0613 2.85327.10703.27893.77703.34272 2.9871.28443l2.84913-.0751z"/>
</svg>
