<svg xmlns="http://www.w3.org/2000/svg" viewBox="0 0 59.413539 59.481627" height="224.81244" width="224.55511">
  <path d="M32.63718 50.59255c1.76967-.3047 4.0228-.9445 4.60029-1.30628.33301-.20863.3217-.42922-.0844-1.64724-.25789-.7735-.53935-1.58283-.62546-1.79851-.11854-.29691-.0482-.28384.2894.0538.24527.24528.97034.87566 1.61126 1.40084 1.11741.91564 1.19596.93886 1.91166.56517 1.24227-.64864 2.99533-2.00892 2.99533-2.32421 0-.163-.6114-1.29335-1.35867-2.51189l-1.35866-2.21552-3.73457-.0309c-2.05401-.017-4.50255-.1063-5.44121-.19843l-1.70666-.16752 1.17749-.59132c.64762-.32522 2.83812-1.3072 4.8678-2.18218 2.02966-.87497 3.77358-1.68045 3.87537-1.78993.36473-.39233-.30944-5.9858-.94778-7.86346-.34789-1.02333-1.17909-3.45451-1.84711-5.40261-.66801-1.9481-1.16619-3.59038-1.10706-3.64951.0998-.0998 1.33276 1.91293 4.16233 6.79464.82987 1.43173 1.49243 3.17878 2.37905 6.27313l1.22886 4.28875 1.91782 2.12739c1.05479 1.17007 2.01182 2.12739 2.12671 2.12739.1149 0 .56266-.74414.99504-1.65364 2.82751-5.9477 2.86771-12.11235.11862-18.1901-.78622-1.73819-2.61563-4.49792-2.98165-4.49792-.30896 0-.57687.63636-1.1696 2.77812-.6828 2.4672-.96795 2.89106-.801 1.19063.52464-5.34369.52009-5.52469-.15695-6.25261-2.69243-2.89476-9.21038-5.39859-14.01818-5.38501-2.33369.007-2.34073.03-1.08539 3.61077l1.09804 3.13206-.28087 4.20037c-.15448 2.3102-.37775 4.45332-.49616 4.7625-.20941.5468-.21957.5441-.37286-.0993-.17455-.7327-1.35291-6.97336-1.61078-8.5308-.17372-1.04922-.28564-1.15955-3.70244-3.64978-1.42443-1.03816-1.98684-1.30606-2.48128-1.18197-1.91813.48143-6.62655 4.50719-8.28909 7.08729l-.81536 1.26537 1.22583 1.84349c.67421 1.01391 1.11496 1.84348.97944 1.84348-.22787 0-1.49457-.96292-2.38575-1.8136-.32157-.30695-.42999-.29198-.71577.0988-.4647.63551-1.2915 3.33566-1.68797 5.5125-.32614 1.79071-.24338 5.9152.13748 6.85173.24643.60596.44127.58931 2.63962-.22567 1.02173-.37878 2.75066-1.01899 3.84207-1.42269 2.26078-.83624 1.71948-.0783 5.29471-7.41362 1.28852-2.64366 2.06839-4.00036 1.97718-3.43958-.0829.50932-.3202 2.05713-.52746 3.43958-.20725 1.38245-.50646 3.28745-.66491 4.23333-.15844.94589-.35669 2.22762-.44054 2.84829-.17263 1.27784-.28344 1.40444-5.45926 6.2372-2.03009 1.89554-3.35472 3.33172-3.35472 3.63723 0 .55022 3.5855 4.48306 4.06853 4.46265.1634-.007 1.11383-1.02572 2.11206-2.26403s1.86299-2.20345 1.9217-2.14474c.11718.11718-.29215 1.14953-1.51065 3.80994-.43936.9593-.7473 1.87852-.6843 2.0427.13916.36263 2.98955 1.79631 4.80828 2.41845 3.07306 1.0512 6.70186 1.39612 9.54255.90699zm-7.02901 4.64742c-8.55143-1.56119-15.42546-6.75057-19.11616-14.43126-2.81498-5.85822-3.28847-12.29766-1.38131-18.78542 2.25084-7.65685 9.06581-14.55866 16.72308-16.93616 5.45335-1.69321 10.29752-1.69321 15.75087 0 11.88401 3.68986 19.71005 16.5039 17.53442 28.71012-1.17789 6.60841-4.34752 12.03232-9.39641 16.07924-5.69232 4.56266-13.33638 6.60093-20.11449 5.36348zm10.84792 3.58479c5.71237-1.42505 10.21472-3.94246 14.22496-7.95364 6.46094-6.46245 9.50375-15.08873 8.56581-24.28377-.4361-4.27533-1.16802-6.84812-2.95435-10.38489C52.48206 8.65808 45.32321 2.87668 37.08879.69377 34.7273.06775 34.00661 0 29.70922 0c-4.2974 0-5.01809.0677-7.37958.69377-5.05207 1.33929-9.80834 4.07288-13.54358 7.78397C2.23306 14.98837-.77835 23.4926.17157 32.80506c.4361 4.27534 1.16802 6.84813 2.95435 10.3849 4.39753 8.70675 13.2308 15.01329 22.61455 16.14573 2.76904.33417 8.40524.0654 10.71562-.51093z"/>
</svg>
