<svg xmlns="http://www.w3.org/2000/svg" width="59.000301mm" height="48.098232mm" viewBox="0 0 59.000301 48.098231">
  <path d="M57.92138 10.341038c.59247-.691224 1.07798-1.379138 1.07892-1.528699.001-.14956-.26618-.494598-.5936-.76675-.54084-.449548-4.39755-3.903071-6.01852-5.389338-1.04134-.954807-3.67583-2.1058847-5.557-2.4280047-.94589-.161967-3.68433-.259684-6.08542-.217149l-4.36562.07734V3.792604l4.89479.155073c6.64638.210566 6.99488.351404 12.12676 4.900673 1.69773 1.504988 3.16681 2.739293 3.26463 2.742901.0978.0036.6626-.558986 1.25506-1.25021zm-52.70534-.79375C6.63488 8.273981 8.03598 7.013747 8.3296 6.746767c.88947-.808745 2.78055-1.833873 4.31971-2.341644 1.15201-.380051 2.30503-.480231 5.52724-.480231h4.07156l-.0777-1.918229-.0777-1.9182287-4.3021-.07271c-3.26684-.05522-4.6994.02891-5.95312.349607C9.9358.8517643 7.75798 2.001621 6.38032 3.246634c-.526.475356-2.17676 1.964906-3.66834 3.310108C1.22039 7.901947 0 9.135506 0 9.297987c0 .333407 2.11548 2.564407 2.43163 2.564407.11263 0 1.36565-1.041797 2.78448-2.315104zm21.9037 22.723918c-3.72587-.978056-6.44888-4.862793-6.16449-8.794456.14202-1.963431 1.47743-4.702247 2.80028-5.743168 1.98004-1.558037 3.18491-1.996102 5.48088-1.992725 1.67927.0025 2.39003.133415 3.43958.633677 6.38356 3.042703 6.55695 12.041772.29374 15.245606-1.3946.71338-4.35675 1.043048-5.84999.651066zm11.26813 6.12077c.58886-.366221 1.68334-1.672392 2.88215-3.439583 7.79696-11.493754 12.45183-18.623807 12.30922-18.854551-.16309-.263884-2.28504-2.02136-5.50413-4.558728-2.90803-2.292173-2.02326-2.190035-18.971-2.190035H14.15516l-1.51002.79375c-1.84879.971826-7.61811 5.638541-7.61811 6.162173 0 .208495.93009 1.764799 2.06686 3.458456 12.8929 19.208881 12.47831 18.641228 13.9338 19.077947.44021.132083 4.31273.217845 8.60559.190579 7.57142-.04809 7.83365-.06726 8.75459-.640008zM19.8437 45.741275v-1.840092l-.99219-.180359c-1.2938-.235183-3.22512-1.21584-3.93931-2.000242-.31123-.341828-1.70662-2.377675-3.10086-4.524107-1.39424-2.146433-2.67909-3.902605-2.85523-3.902605-.43437 0-2.85539 1.658827-2.86392 1.962301-.006.224655 1.73916 2.997102 5.19713 8.254905 2.02865 3.084552 3.56665 4.023733 6.63615 4.052387l1.91823.01791zm22.45732 1.957454c.76499-.227177 1.82448-.808877 2.36313-1.297451.53703-.487106 2.52371-3.171825 4.41484-5.966039l3.43842-5.080397-1.05717-.89594c-1.29332-1.096078-1.93953-1.330737-2.37238-.861496-.18159.196858-1.49572 2.084329-2.92029 4.194381-1.42457 2.110052-2.81228 4.084116-3.0838 4.386813-.64086.714436-2.74622 1.761683-3.92549 1.952611l-.92604.149929-.0799 1.692169c-.0554 1.174676.0255 1.758982.26458 1.910646.54962.348615 2.38043.261306 3.88406-.185226z"/>
</svg>
