<svg xmlns="http://www.w3.org/2000/svg" viewBox="0 0 59.196741 51.327433" height="193.99344" width="223.73572">
  <path d="M15.121563 6.382713c.25467-.27306.90756-1.21107 1.45089-2.08447 1.57561-2.53283 1.10749-2.44616 13.21146-2.44616 12.11752 0 11.62873-.0954 13.18505 2.57387.50932.87355 1.08945 1.78289 1.28917 2.02074.39545.47098 1.75764.58936 2.01372.17501.17678-.28604-2.01517-4.28437-2.88241-5.25778-1.22289-1.372615-1.1357-1.363922-13.67941-1.363922h-11.6977l-1.09525.641852c-.8746.51255-1.37678 1.15006-2.49274 3.16451-.76863 1.38746-1.321 2.64643-1.22749 2.79773.27608.44671 1.42485.31458 1.92471-.22138zm15.73637 26.491767c.22351-.25466 1.254-1.94452 2.28996-3.75523 1.96942-3.44227 2.2717-4.55125 1.3718-5.03286-.74916-.40094-9.34796-.36249-9.75406.0436-.59736.59735-.31726 1.82425.91188 3.9943 1.73338 3.0603 2.80959 4.78453 3.12756 5.01071.49821.3544 1.64035.20944 2.05286-.26053zm-2.97697 8.33437c-.83529-.56587-1.81112-1.9748-3.61918-5.22552-.44516-.80036-2.21226-3.89599-3.92688-6.87917-4.47588-7.78734-4.37126-7.5393-3.76121-8.91723.86727-1.958937.67657-1.930677 13.02956-1.930677 11.83399 0 11.99825.0175 12.95278 1.380267.22711.32426.41293 1.05276.41293 1.61891 0 1.03909-.3457 1.73238-3.97966 7.98103-1.56155 2.68509-1.61286 2.77469-4.09091 7.14375-.99044 1.74625-2.0872 3.55279-2.43725 4.01454-1.11014 1.46441-3.09854 1.81784-4.58018.8141zm6.9005 6.01173c.43012-.22243 1.07642-.87073 1.43621-1.44068.52871-.83752 5.24599-8.9795 7.26903-12.54626.25648-.4522 1.73255-3.02484 3.28015-5.71698 3.6197-6.29668 3.60924-6.1756.93425-10.807817-1.28223-2.22041-2.14694-3.42108-2.71198-3.76562-.79023-.48186-1.52045-.50587-15.41208-.50682-16.55958-.001-15.14138-.19721-16.69979 2.30909-3.4675 5.576557-3.73932 6.428107-2.68439 8.409467 1.0019 1.88175 3.38535 6.07567 5.78688 10.18254.97858 1.67349 2.07826 3.57849 2.44372 4.23333.36545.65484 1.41218 2.50031 2.32606 4.10104.91387 1.60073 1.91495 3.36044 2.22462 3.91046 1.03731 1.84246 1.55442 2.00146 6.58035 2.02333 3.49924.0152 4.6113-.0667 5.22697-.38508zm11.9384 3.63804c1.02829-.67817 1.67289-1.61989 4.38661-6.40862.28863-.50933 1.92806-3.36683 3.64317-6.35 1.71512-2.98318 3.41736-5.95867 3.78275-6.6122.48674-.87057.66435-1.58057.66435-2.65576 0-1.50815-.25546-2.10768-2.29426-5.38428l-.80316-1.29077-.47976.59248c-.68709.84852-.60923 1.32174.57484 3.49395.58004 1.06409 1.05629 2.24439 1.05834 2.6229.005.86813-.0416.9558-5.43174 10.29201-1.72231 2.98318-3.61492 6.28004-4.20582 7.32635-1.41762 2.51025-2.24175 2.9924-5.11483 2.9924-1.95744 0-2.14845.049-2.54367.65215-.23502.35868-.4273.7754-.4273.92604 0 .17399 1.18221.27326 3.24114.27215 2.65162-.001 3.36996-.0867 3.94934-.4688zm-27.03423.19665c0-.15064-.19229-.56736-.42731-.92604-.39521-.60318-.58623-.65215-2.54366-.65215-2.87309 0-3.69721-.48215-5.11484-2.9924-.59089-1.04631-2.48351-4.34317-4.20582-7.32635-5.37264-9.30587-5.43546-9.42455-5.43546-10.26944 0-.36609.47625-1.53338 1.05834-2.59396 1.18458-2.15838 1.27133-2.68994.57857-3.54546l-.47977-.59248-.80316 1.29077c-2.01621 3.2403-2.29112 3.88011-2.31145 5.37958-.016 1.18096.14193 1.75155.80899 2.92266.45589.80036 2.16635 3.77692 3.80104 6.61458 1.63468 2.83766 3.20903 5.57609 3.49856 6.08542 3.97892 6.99966 3.81989 6.8685 8.33482 6.87471 2.06068.003 3.24115-.0953 3.24115-.26944z"/>
</svg>
