<svg xmlns="http://www.w3.org/2000/svg" viewBox="0 0 59.13435 47.635184" height="180.03848" width="223.49991">
  <path d="M35.93382 46.9160288c1.27201-.607941 3.1822-2.413526 12.35262-11.676181 5.96635-6.026367 10.84791-11.164987 10.84791-11.419159 0-.25417-4.8492-5.362152-10.77599-11.351073C35.19993-.8267282 36.45109.0106978 29.74355.0103878c-2.48598-.000115-4.59976.07958-4.69728.177108-.0975.09752.0116.465665.24254.818092.56506.862396.53229 2.758318-.0652 3.773363-.26679.453215-.90179 1.083695-1.41111 1.401065-.8437.525729-1.34199.584801-5.60398.664343l-4.67793.08731-1.34134 1.94031c-.73774 1.06717-1.34134 2.010149-1.34134 2.095507 0 .08536 2.37998.155198 5.28883.155198 4.58085 0 5.46839.06823 6.63022.509687 1.41433.537402 3.1622 1.725578 3.1622 2.149611 0 .154587-4.42427.251118-11.50937.251118-10.62564 0-11.54148.03555-11.9275.463021C1.59928 15.4850278 0 17.8501718 0 18.1819278c0 .284856 2.69309.349089 14.63635.349089 17.03157 0 16.64314.04587 18.85991-2.227294 1.19292-1.223258 1.7558-2.251465 2.3992-4.382536.0779-.258169 2.10322 1.594723 5.92859 5.423957 3.19561 3.198844 5.91988 6.002951 6.05391 6.23135.19264.32825-1.02559 1.683665-5.81371 6.468395-3.88015 3.877392-6.09872 5.91547-6.1723 5.670148-.87565-2.91923-2.24741-4.816562-4.26235-5.895385-1.05713-.565997-1.25723-.573921-16.34992-.647377C2.62926 29.1107048 0 29.1590748 0 29.4533308c0 .3576 2.26761 3.593973 2.77214 3.956447.14881.106913 5.42994.19621 11.73584.198437 8.77976.0031 11.44056.0782 11.35976.320628-.16719.501549-2.5243 2.023046-3.59469 2.32034-.53575.148802-2.00886.271214-3.27358.272023-1.26472.000794-2.36189.102437-2.43815.22583-.11314.183068 1.68696 2.944834 2.50841 3.848465.11817.129998 1.18057.321268 2.36089.425043 1.94773.171249 2.22914.26924 3.04548 1.060466 1.31025 1.269949 1.61815 3.162059.77871 4.785365l-.39757.768807h4.78595c4.66194 0 4.82494-.01863 6.29065-.719148z"/>
</svg>
