<svg xmlns="http://www.w3.org/2000/svg" viewBox="0 0 57.108775 60.057517" height="226.98903" width="215.84419">
  <path d="M12.33661 31.15258c.13023-3.56926.8211-5.82188 3.62673-11.82524 2.47942-5.30535 2.81447-6.58751 2.71847-10.40295l-.0748-2.97127-.99771-.48745c-1.09383-.53441-5.89698-1.17071-6.65152-.88117-.42407.16273-.38998.27526.3328 1.09846 1.3202 1.50363 1.86847 4.16077 1.36932 6.63639-.17424.8642-.91599 2.88096-1.64833 4.48169-.73233 1.60073-1.55538 3.68394-1.82898 4.62936-.86849 3.00105-.57998 7.03001.68216 9.52584.54366 1.07508 1.70348 2.3822 2.11103 2.37915.16917-.001.31293-.87102.36079-2.18281zm15.25702 18.65523c-.92776-2.16777-1.18137-3.4878-1.18137-6.14894 0-3.19756.38766-4.70811 2.17352-8.46929 1.56235-3.29044 2.05965-4.91232 2.06112-6.72215.002-2.38528-.67083-3.9923-2.43759-5.82266-.83064-.86053-1.44869-1.6642-1.37345-1.78594.0752-.12173 1.86875-.22133 3.98559-.22133 4.01993 0 5.78761.2883 8.486 1.38403.7622.3095 1.46551.48304 1.56291.38564.36387-.36387.67193-2.8083.80419-6.38112.11011-2.97453.0487-4.00946-.31834-5.36545-1.11283-4.11111-4.49403-7.32386-9.57945-9.10218C29.20598.65945 25.15859 0 22.21189 0h-2.7462l1.03645 1.12448c1.4208 1.54146 2.15872 3.18408 2.66219 5.92602.72344 3.9399-.0187 7.2643-2.9742 13.32241-2.92613 5.99797-3.41048 7.86099-3.40495 13.09688.003 2.93581.12744 4.45078.47774 5.82083 1.13836 4.45222 4.17994 7.99732 8.88475 10.35555 1.45645.73003 1.70091.75736 1.44596.16164zm13.4917 5.2438c.0837-.13547.019-.32865-.14387-.4293-.16285-.10065-.58035-.79348-.92777-1.53963-.50537-1.08537-.6322-1.79654-.63427-3.55655-.003-2.45552.32636-3.44275 2.30481-6.91108 1.51104-2.64892 2.15362-4.41728 2.65015-7.29318.65042-3.76718-.13583-6.42362-2.41602-8.1628-1.26837-.96743-3.54438-1.99461-5.40563-2.43958-1.52524-.36465-4.27964-.50696-4.27964-.22112 0 .0862.23837.45975.52972.83013.6499.82622 1.32336 3.0141 1.3195 4.2867-.004 1.45166-.63685 3.22704-2.35138 6.60078-1.81148 3.56452-2.40826 5.58611-2.40826 8.15804 0 3.60899 1.37999 6.32756 4.1569 8.18905 1.70496 1.14292 3.93895 2.09791 5.76498 2.46443 1.49188.29945 1.66917.30178 1.84078.0241zm15.95485-8.68339l.0686-13.55989h-7.62596l-.29046.83323c-.15976.45828-.29047 1.10731-.29047 1.4423 0 .69052-.52653 2.81408-1.17815 4.75163-.24179.71897-1.24807 2.91456-2.23616 4.87909-2.16879 4.31197-2.5752 5.76792-2.15587 7.72323.1643.76609.61274 1.93137.99654 2.58952.80602 1.38217 3.66259 4.46011 4.44135 4.78553.29104.12162 2.25557.19731 4.36562.16819l3.83646-.0529zM37.35846 59.88537l1.02433-.16921-2.03727-.74275c-2.40014-.87505-5.10149-2.3402-6.37294-3.45655-.52103-.45747-1.5395-.96156-2.39312-1.18448-4.67832-1.22167-8.81046-4.22742-11.73254-8.53432-1.28984-1.90113-1.97138-3.41488-2.74689-6.10109-.58524-2.02714-.71461-2.23493-2.05667-3.30328-1.46726-1.16802-1.98618-1.71331-2.77245-2.91332l-.44935-.68579-3.86767.073-3.86768.073-.0688 13.22917c-.0379 7.27604-.0118 13.37799.0578 13.55989.0996.26016 3.98171.33011 18.19281.32782 9.93636-.002 18.52706-.0791 19.09044-.17213z"/>
</svg>
