<svg xmlns="http://www.w3.org/2000/svg" width="58.737499mm" height="23.620338mm" viewBox="0 0 58.737499 23.620338">
  <path d="M45.080308 18.83325c-2.29858-.86038-3.74701-2.20112-4.61048-4.26768-.5251-1.25675-.29828-1.45889 1.64348-1.46464 1.23092-.004 1.47418.0985 2.43614 1.02272 1.29834 1.24745 2.4851 1.53697 3.9114.95424 1.48269-.60578 2.07457-1.54839 2.07457-3.30393 0-1.75554-.59188-2.69815-2.07457-3.30393-1.4263-.58273-2.61306-.29321-3.9114.95424-.96196.92425-1.20522 1.02637-2.43614 1.02272-2.10358-.006-2.24714-.20604-1.39678-1.94411 1.29501-2.6469 3.4812-3.98946 6.51159-3.99883 1.70171-.005 2.16329.099 3.24035.73216 2.60101 1.52893 3.89823 3.70451 3.89823 6.53775 0 3.91081-2.88676 7.0678-6.68608 7.31197-.99207.0638-2.02239-.0364-2.60031-.25268zm-35.71801.00025c-3.08468-1.15469-4.99151-3.85153-4.99151-7.05954 0-2.83324 1.29723-5.00882 3.89824-6.53775 1.07706-.63312 1.53864-.73742 3.24034-.73216 3.0304.009 5.21659 1.35193 6.5116 3.99883.85036 1.73807.7068 1.93788-1.39678 1.94411-1.23092.004-1.47418-.0985-2.43614-1.02272-1.29834-1.24745-2.4851-1.53697-3.9114-.95424-1.48269.60578-2.07457 1.54839-2.07457 3.30393 0 1.75554.59188 2.69815 2.07457 3.30393 1.4263.58273 2.61306.29321 3.9114-.95424.96196-.92425 1.20522-1.02637 2.43614-1.02272 2.10358.006 2.24714.20604 1.39678 1.94411-1.18051 2.41287-3.38193 3.87091-6.10694 4.04473-.94504.0603-1.98513-.0442-2.55173-.25627zm7.17743 3.861668c3.13881-1.51936 6.05432-5.159708 6.52689-8.149578.0914-.57851.29666-1.13931.45606-1.24622.1594-.10692 2.79013-.19439 5.84607-.19439s5.68667.0875 5.84607.19439c.15939.10691.36462.66771.45606 1.24622.4714 2.98242 3.38036 6.618758 6.52689 8.158918 1.65742.81128 1.84907.84341 5.03035.84341 3.14837 0 3.38299-.0381 4.88237-.79375 2.4118-1.21542 4.46358-3.268058 5.63415-5.636548.98865-2.0004.99286-2.02307.99286-5.34366 0-3.32059-.004-3.34326-.99286-5.34366-1.17057-2.36849-3.22235-4.42113-5.63415-5.63655C50.611108.03814 50.376488 0 47.228118 0c-3.18128 0-3.37293.0321-5.03035.84341-3.14653 1.54016-6.05549 5.1765-6.52689 8.15892-.0914.57851-.29667 1.13931-.45606 1.24622-.1594.10692-2.79013.19439-5.84607.19439s-5.68667-.0875-5.84607-.19439c-.1594-.10691-.36462-.66771-.45606-1.24622-.4714-2.98242-3.38036-6.61876-6.52689-8.15892C14.882308.03213 14.690658 0 11.509368 0c-3.14836 0-3.38298.0381-4.88236.79375C4.215198 2.00917 2.163428 4.06181.99286 6.4303.00487 8.42938 0 8.45551 0 11.76024c0 3.17967.0356 3.39623.83728 5.08832.979888 2.06835 2.596318 3.924868 4.460628 5.123178 2.25447 1.4491 3.35078 1.72023 6.60834 1.63428 2.64044-.0697 3.07025-.15416 4.63348-.91085z"/>
</svg>
