<svg xmlns="http://www.w3.org/2000/svg" viewBox="0 0 44.428945 59.633043" height="225.38472" width="167.92043">
  <path d="M3.36729 33.8052489l2.7165-2.707253.002-1.459934c.003-3.037353-.0918-2.907366 8.15189-11.183374 4.16738-4.183724 7.75916-7.606771 7.98173-7.606771.6783 0 15.50535 15.075458 15.84742 16.112919.1631.494659.29654 1.610243.29654 2.479074v1.579697l2.72987 2.746447c1.50142 1.510546 2.87953 2.746442 3.06247 2.746442.2607 0 .31403-1.472918.2467-6.813016l-.0859-6.813021-.72747-1.335773c-.50843-.933567-3.78381-4.379177-10.8779-11.443229C27.12841 4.5483559 22.44873-1e-7 22.31187-1e-7c-.39181 0-19.88122 19.277994-20.71595 20.491228C.41546 22.2069719-.00136 24.0371079 0 27.4985429c.001 3.776549.29068 9.013953.49773 9.013953.0844 0 1.37592-1.218259 2.86999-2.707247zm10.94417 4.890067c4.22967-4.183727 7.78501-7.606774 7.90076-7.606774.11574 0 3.68666 3.393281 7.93536 7.540624 4.24871 4.14734 7.83527 7.58031 7.97015 7.62882.14472.0521.24522-1.85139.24522-4.64455v-4.73275l-.75473-1.17628c-.75685-1.179593-14.90985-15.199197-15.34381-15.199197-.12707 0-3.58002 3.269038-7.67321 7.264532-5.21328 5.088842-7.60169 7.603892-7.97479 8.397635-.46849.99668-.53262 1.67501-.53262 5.63391 0 2.86997.0974 4.5008.26868 4.5008.14778 0 3.72932-3.42305 7.95899-7.60677zm12.08206 16.6718c2.29363 2.29027 4.31772 4.16413 4.49796 4.16413.24631 0 .32772-1.00683.32772-4.05302 0-6.07811.0397-5.98968-4.84586-10.7865-2.20972-2.16957-4.07818-3.94495-4.15212-3.94528-.0739-.00027-1.93601 1.75556-4.13793 3.90199-4.91077 4.78704-4.85575 4.66634-4.85575 10.65252 0 2.27815.0837 4.22578.18594 4.32805.10227.10227 2.12631-1.75175 4.49787-4.12004l4.31193-4.30598z"/>
</svg>
