<svg xmlns="http://www.w3.org/2000/svg" viewBox="0 0 59.163624 48.834849" height="184.57265" width="223.61055">
  <path d="M32.103 16.034849c1.09887-.31515 1.49985-.79456 5.16147-6.17104 5.06245-7.43339 6.24465-9.25757 6.24465-9.63579 0-.22779-.62954.08-1.65364.80856-2.0833 1.48203-4.94264 3.44795-8.00119 5.50116l-2.37878 1.59689-2.51601-.0953-2.516-.0953-2.73252-1.97807c-1.50289-1.08793-2.99097-2.15666-3.30685-2.37494-.31587-.21828-1.63432-1.14285-2.92989-2.0546-1.29555-.91175-2.41232-1.60097-2.48168-1.53161-.13433.13433 1.26449 2.35405 6.42834 10.2008 1.77167 2.69213 3.41055 5.05188 3.64197 5.24388.23142.19199.75579.44965 1.16528.57257 1.0412.31253 4.80104.32067 5.87485.0127zm18.65493 6.65032c.075-.12128-.0903-1.32645-.36723-2.67815-.5241-2.5581-1.74781-5.46202-3.20978-7.61697-.94704-1.39594-4.56752-5.09478-4.98685-5.09478-.30209 0-2.10853 2.37085-2.11676 2.77812-.003.14553.88565 1.18984 1.97465 2.32071 1.55071 1.61035 2.23154 2.58552 3.14028 4.49792.63817 1.34298 1.30798 3.15617 1.48849 4.02929.1805.87313.3812 1.6768.44599 1.78594.16158.27217 3.46175.25211 3.63121-.0221zm-39.06495-.37341c.1819-.14554.33366-.57746.33723-.95982.0207-2.21169 2.11448-6.29731 4.58041-8.9378l1.8359-1.96586-.99467-1.44422c-.54707-.79431-1.13923-1.44421-1.31591-1.44421-.17669 0-1.09713.80367-2.04542 1.78594-2.72645 2.82411-4.58047 6.00367-5.49863 9.42986-.51186 1.91007-.68945 3.62474-.4049 3.90929.22136.22136 3.15291-.0907 3.50599-.37318zm20.74706 6.74549c.60308-.71597 2.60242-4.22244 2.60242-4.56416 0-.3558-2.00463-3.88619-2.59151-4.56397-.59205-.68375-5.60232-.68375-6.19343 0-.85408.98794-2.40391 3.9353-2.39996 4.56407.002.3638.43016 1.37583.95083 2.24895 1.78331 2.99048 1.43804 2.77813 4.51687 2.77813 2.27005 0 2.78985-.0773 3.11478-.46302zm1.26178 16.47404c2.61218-.54949 3.72189-1.05281 3.72189-1.68809 0-.2864-.23971-1.07996-.5327-1.76346-.58849-1.37291-.39337-1.33932-3.17147-.54593-2.15615.61577-6.78171.56181-9.19624-.10729-1.05026-.29104-1.95689-.52917-2.01475-.52917-.17256 0-.95984 2.57051-.95984 3.13395 0 .52782 1.14051 1.00483 3.83646 1.60455 1.7035.37895 6.29239.32126 8.31665-.10456zm8.91569-4.32151c.0936-3.59157.29107-6.76826.43878-7.0593.60782-1.19769 2.65849-3.54295 3.31758-3.79417.38892-.14824 3.3265-1.12328 6.52796-2.16675 3.20146-1.04348 5.98641-1.98872 6.18877-2.10054.57724-.31896-2.0483-.52664-15.7895-1.24894l-2.98615-.15697-1.18228 1.2339c-1.40936 1.47089-2.93651 3.73124-3.16788 4.6888-.1733.7172.32324 2.34369 3.18218 10.42383.82382 2.32834 1.72689 4.88818 2.00682 5.68854.83136 2.37693.79388 2.31895 1.05716 1.63535.12998-.33748.31293-3.55217.40656-7.14375zm-25.30213 7.31993c0-.16782.64473-2.10259 1.43275-4.29948 3.56328-9.93402 4.38808-12.40729 4.38808-13.15823 0-.94026-2.19251-4.27389-3.65605-5.5589l-.93848-.82399-3.06055.15688c-12.69663.65079-15.81407.89983-15.45395 1.23455.12241.11378 2.48476.94663 5.24965 1.85078 8.36337 2.73489 7.89257 2.52014 9.20461 4.19838.64138.82038 1.28789 1.72974 1.43669 2.02078.14881.29104.348 3.08901.44266 6.21771.19167 6.33505.37306 8.46666.72049 8.46666.12875 0 .2341-.13731.2341-.30514z"/>
</svg>
